<svg width="1373" height="901" viewBox="0 0 1373 901" fill="none" xmlns="http://www.w3.org/2000/svg">
<rect width="1373" height="901" fill="#111111"/>
<circle cx="636" cy="245" r="198.5" fill="white" stroke="black" stroke-width="3"/>
<path d="M587.896 238.16H589.912V244.808H596.488V238.16H598.504V254H596.488V246.536H589.912V254H587.896V238.16ZM608.311 254.312C607.143 254.312 606.079 254.056 605.119 253.544C604.175 253.016 603.423 252.272 602.863 251.312C602.319 250.336 602.047 249.2 602.047 247.904C602.047 246.624 602.319 245.496 602.863 244.52C603.423 243.544 604.159 242.792 605.071 242.264C605.983 241.736 606.951 241.472 607.975 241.472C609.623 241.472 610.919 241.992 611.863 243.032C612.807 244.072 613.279 245.464 613.279 247.208C613.279 247.656 613.255 248.04 613.207 248.36H604.087C604.135 249.672 604.567 250.728 605.383 251.528C606.215 252.312 607.271 252.704 608.551 252.704C609.207 252.704 609.815 252.608 610.375 252.416C610.951 252.224 611.527 251.936 612.103 251.552L612.799 252.872C611.359 253.832 609.863 254.312 608.311 254.312ZM611.455 246.92C611.455 245.688 611.151 244.736 610.543 244.064C609.935 243.376 609.087 243.032 607.999 243.032C607.023 243.032 606.159 243.384 605.407 244.088C604.655 244.792 604.207 245.736 604.063 246.92H611.455ZM624.525 254.312C623.277 254.312 622.325 253.944 621.669 253.208C621.029 252.472 620.709 251.384 620.709 249.944V238.16H616.725V236.552H622.677V250.088C622.677 250.968 622.877 251.624 623.277 252.056C623.677 252.472 624.237 252.68 624.957 252.68C625.581 252.68 626.317 252.48 627.165 252.08L627.669 253.568C626.981 253.84 626.421 254.032 625.989 254.144C625.573 254.256 625.085 254.312 624.525 254.312ZM631.404 241.76H633.036L633.204 243.344H633.276C633.836 242.784 634.468 242.336 635.172 242C635.892 241.648 636.604 241.472 637.308 241.472C638.86 241.472 640.052 242.032 640.884 243.152C641.716 244.256 642.132 245.776 642.132 247.712C642.132 249.056 641.884 250.232 641.388 251.24C640.908 252.232 640.26 252.992 639.444 253.52C638.644 254.048 637.772 254.312 636.828 254.312C636.284 254.312 635.692 254.168 635.052 253.88C634.428 253.592 633.852 253.2 633.324 252.704L633.372 255.032V258.92H631.404V241.76ZM636.492 252.656C637.18 252.656 637.796 252.456 638.34 252.056C638.9 251.656 639.332 251.08 639.636 250.328C639.94 249.576 640.092 248.704 640.092 247.712C640.092 246.272 639.82 245.152 639.276 244.352C638.748 243.536 637.924 243.128 636.804 243.128C636.276 243.128 635.716 243.288 635.124 243.608C634.548 243.912 633.964 244.376 633.372 245V251.168C633.884 251.664 634.42 252.04 634.98 252.296C635.556 252.536 636.06 252.656 636.492 252.656ZM649.371 243.368H646.035V241.904L649.371 241.76V241.208C649.371 239.656 649.763 238.448 650.547 237.584C651.331 236.704 652.507 236.264 654.075 236.264C655.259 236.264 656.379 236.504 657.435 236.984L656.979 238.472C656.515 238.248 656.075 238.096 655.659 238.016C655.259 237.92 654.795 237.872 654.267 237.872C652.299 237.872 651.315 238.96 651.315 241.136V241.76H656.211V243.368H651.315V254H649.371V243.368ZM663.857 254.312C662.481 254.312 661.457 253.896 660.785 253.064C660.129 252.232 659.801 251 659.801 249.368V241.76H661.793V249.104C661.793 250.32 662.001 251.208 662.417 251.768C662.833 252.328 663.521 252.608 664.481 252.608C665.137 252.608 665.737 252.432 666.281 252.08C666.825 251.712 667.433 251.112 668.105 250.28V241.76H670.073V254H668.465L668.297 251.84H668.201C667.561 252.624 666.889 253.232 666.185 253.664C665.481 254.096 664.705 254.312 663.857 254.312ZM682.088 254.312C680.84 254.312 679.888 253.944 679.232 253.208C678.592 252.472 678.272 251.384 678.272 249.944V238.16H674.288V236.552H680.24V250.088C680.24 250.968 680.44 251.624 680.84 252.056C681.24 252.472 681.8 252.68 682.52 252.68C683.144 252.68 683.88 252.48 684.728 252.08L685.232 253.568C684.544 253.84 683.984 254.032 683.552 254.144C683.136 254.256 682.648 254.312 682.088 254.312Z" fill="#0050A8"/>
<circle cx="687" cy="613" r="173.5" fill="white" stroke="black" stroke-width="3"/>
<path d="M614.192 607.84H609.008V606.16H621.392V607.84H616.208V622H614.192V607.84ZM625.895 609.76H627.527L627.695 612.688H627.767C628.391 611.68 629.151 610.896 630.047 610.336C630.943 609.76 631.919 609.472 632.975 609.472C633.887 609.472 634.655 609.64 635.279 609.976L634.823 611.68C634.391 611.52 634.031 611.408 633.743 611.344C633.455 611.28 633.095 611.248 632.663 611.248C630.743 611.248 629.143 612.424 627.863 614.776V622H625.895V609.76ZM642.685 622.312C641.309 622.312 640.285 621.896 639.613 621.064C638.957 620.232 638.629 619 638.629 617.368V609.76H640.621V617.104C640.621 618.32 640.829 619.208 641.245 619.768C641.661 620.328 642.349 620.608 643.309 620.608C643.965 620.608 644.565 620.432 645.109 620.08C645.653 619.712 646.261 619.112 646.933 618.28V609.76H648.901V622H647.293L647.125 619.84H647.029C646.389 620.624 645.717 621.232 645.013 621.664C644.309 622.096 643.533 622.312 642.685 622.312ZM658.612 622.312C657.54 622.312 656.516 622.136 655.54 621.784C654.564 621.416 653.684 620.952 652.9 620.392L653.86 619.096C654.564 619.64 655.292 620.056 656.044 620.344C656.812 620.616 657.692 620.752 658.684 620.752C659.692 620.752 660.46 620.568 660.988 620.2C661.532 619.832 661.804 619.36 661.804 618.784C661.804 618.288 661.516 617.856 660.94 617.488C660.38 617.12 659.404 616.752 658.012 616.384C656.7 616.048 655.628 615.592 654.796 615.016C653.98 614.424 653.572 613.728 653.572 612.928C653.572 611.92 653.996 611.096 654.844 610.456C655.708 609.8 656.916 609.472 658.468 609.472C659.3 609.472 660.132 609.616 660.964 609.904C661.796 610.192 662.524 610.56 663.148 611.008L662.188 612.304C661.02 611.44 659.78 611.008 658.468 611.008C657.444 611.008 656.708 611.176 656.26 611.512C655.812 611.848 655.588 612.288 655.588 612.832C655.588 613.312 655.892 613.72 656.5 614.056C657.108 614.392 657.988 614.712 659.14 615.016C660.772 615.448 661.956 615.944 662.692 616.504C663.428 617.048 663.796 617.768 663.796 618.664C663.796 619.336 663.588 619.952 663.172 620.512C662.772 621.056 662.18 621.496 661.396 621.832C660.612 622.152 659.684 622.312 658.612 622.312ZM674.995 622.312C673.395 622.312 672.243 621.872 671.539 620.992C670.851 620.112 670.507 618.872 670.507 617.272V611.368H667.219V609.76H670.579V606.16L672.475 604.96V609.76H678.211V611.368H672.475V617.296C672.475 618.448 672.691 619.304 673.123 619.864C673.571 620.408 674.339 620.68 675.427 620.68C676.403 620.68 677.339 620.496 678.234 620.128L678.667 621.568C677.387 622.064 676.163 622.312 674.995 622.312ZM680.145 609.76H682.161L683.577 616.936C683.817 618.184 684.009 619.312 684.153 620.32H684.249C684.537 618.816 684.769 617.688 684.945 616.936L686.361 610.432H688.041L689.481 616.936C689.737 618.088 689.897 618.84 689.961 619.192L690.201 620.32H690.297C690.393 619.856 690.497 619.264 690.609 618.544L690.897 616.936L692.289 609.76H694.161L691.617 622H689.241L687.849 615.664L687.585 614.248C687.377 613.048 687.249 612.344 687.201 612.136H687.105C687.057 612.36 687.001 612.696 686.937 613.144L686.457 615.688L685.113 622H682.761L680.145 609.76ZM701.544 622.312C700.504 622.312 699.544 622.056 698.664 621.544C697.784 621.032 697.08 620.296 696.552 619.336C696.04 618.36 695.784 617.216 695.784 615.904C695.784 614.576 696.04 613.432 696.552 612.472C697.08 611.496 697.784 610.752 698.664 610.24C699.544 609.728 700.504 609.472 701.544 609.472C702.584 609.472 703.544 609.728 704.424 610.24C705.304 610.752 706 611.496 706.512 612.472C707.04 613.432 707.304 614.576 707.304 615.904C707.304 617.216 707.04 618.36 706.512 619.336C706 620.296 705.304 621.032 704.424 621.544C703.544 622.056 702.584 622.312 701.544 622.312ZM701.544 620.68C702.664 620.68 703.56 620.24 704.232 619.36C704.92 618.48 705.264 617.328 705.264 615.904C705.264 614.48 704.92 613.328 704.232 612.448C703.56 611.552 702.664 611.104 701.544 611.104C700.424 611.104 699.52 611.552 698.832 612.448C698.16 613.328 697.824 614.48 697.824 615.904C697.824 617.328 698.16 618.48 698.832 619.36C699.52 620.24 700.424 620.68 701.544 620.68ZM712.238 609.76H713.87L714.038 612.688H714.11C714.734 611.68 715.494 610.896 716.39 610.336C717.286 609.76 718.262 609.472 719.318 609.472C720.23 609.472 720.998 609.64 721.622 609.976L721.166 611.68C720.734 611.52 720.374 611.408 720.086 611.344C719.798 611.28 719.438 611.248 719.006 611.248C717.086 611.248 715.486 612.424 714.206 614.776V622H712.238V609.76ZM732.557 622.312C730.957 622.312 729.805 621.872 729.101 620.992C728.413 620.112 728.069 618.872 728.069 617.272V611.368H724.781V609.76H728.141V606.16L730.037 604.96V609.76H735.773V611.368H730.037V617.296C730.037 618.448 730.253 619.304 730.685 619.864C731.133 620.408 731.901 620.68 732.989 620.68C733.965 620.68 734.901 620.496 735.797 620.128L736.229 621.568C734.949 622.064 733.725 622.312 732.557 622.312ZM739.748 604.552H741.716V608.968L741.62 611.896C742.324 611.112 743.02 610.512 743.708 610.096C744.412 609.68 745.188 609.472 746.036 609.472C748.724 609.472 750.068 611.112 750.068 614.392V622H748.1V614.656C748.1 613.456 747.884 612.576 747.452 612.016C747.036 611.456 746.356 611.176 745.412 611.176C744.756 611.176 744.156 611.352 743.612 611.704C743.084 612.056 742.452 612.64 741.716 613.456V622H739.748V604.552ZM755.05 627.208C754.474 627.208 753.962 627.128 753.514 626.968L753.922 625.408C754.29 625.52 754.642 625.576 754.978 625.576C755.762 625.576 756.41 625.344 756.922 624.88C757.434 624.416 757.858 623.76 758.194 622.912L758.53 622.048L753.082 609.76H755.074L757.93 616.648C758.106 617.048 758.266 617.448 758.41 617.848C758.57 618.232 758.73 618.608 758.89 618.976C758.954 619.152 759.026 619.344 759.106 619.552C759.186 619.744 759.274 619.952 759.37 620.176H759.466L759.898 618.976C760.154 618.224 760.426 617.448 760.714 616.648L763.258 609.76H765.13L760.018 623.008C759.506 624.32 758.858 625.344 758.074 626.08C757.29 626.832 756.282 627.208 755.05 627.208Z" fill="#A8701B"/>
<circle cx="379" cy="704" r="148.5" fill="white" stroke="black" stroke-width="3"/>
<path d="M287.28 711.296H291.192V698.84H287.28V697.16H297.12V698.84H293.208V711.296H297.12V713H287.28V711.296ZM301.623 700.76H303.255L303.423 702.896H303.519C304.207 702.128 304.895 701.536 305.583 701.12C306.287 700.688 307.063 700.472 307.911 700.472C310.599 700.472 311.943 702.112 311.943 705.392V713H309.975V705.656C309.975 704.456 309.759 703.576 309.327 703.016C308.911 702.456 308.231 702.176 307.287 702.176C306.631 702.176 306.031 702.352 305.487 702.704C304.959 703.056 304.327 703.64 303.591 704.456V713H301.623V700.76ZM321.221 713.312C320.149 713.312 319.125 713.136 318.149 712.784C317.173 712.416 316.293 711.952 315.509 711.392L316.469 710.096C317.173 710.64 317.901 711.056 318.653 711.344C319.421 711.616 320.301 711.752 321.293 711.752C322.301 711.752 323.069 711.568 323.597 711.2C324.141 710.832 324.413 710.36 324.413 709.784C324.413 709.288 324.125 708.856 323.549 708.488C322.989 708.12 322.013 707.752 320.621 707.384C319.309 707.048 318.237 706.592 317.405 706.016C316.589 705.424 316.181 704.728 316.181 703.928C316.181 702.92 316.605 702.096 317.453 701.456C318.317 700.8 319.525 700.472 321.077 700.472C321.909 700.472 322.741 700.616 323.573 700.904C324.405 701.192 325.133 701.56 325.757 702.008L324.797 703.304C323.629 702.44 322.389 702.008 321.077 702.008C320.053 702.008 319.317 702.176 318.869 702.512C318.421 702.848 318.197 703.288 318.197 703.832C318.197 704.312 318.501 704.72 319.109 705.056C319.717 705.392 320.597 705.712 321.749 706.016C323.381 706.448 324.565 706.944 325.301 707.504C326.037 708.048 326.405 708.768 326.405 709.664C326.405 710.336 326.197 710.952 325.781 711.512C325.381 712.056 324.789 712.496 324.005 712.832C323.221 713.152 322.293 713.312 321.221 713.312ZM330.404 700.76H332.036L332.204 702.344H332.276C332.836 701.784 333.468 701.336 334.172 701C334.892 700.648 335.604 700.472 336.308 700.472C337.86 700.472 339.052 701.032 339.884 702.152C340.716 703.256 341.132 704.776 341.132 706.712C341.132 708.056 340.884 709.232 340.388 710.24C339.908 711.232 339.26 711.992 338.444 712.52C337.644 713.048 336.772 713.312 335.828 713.312C335.284 713.312 334.692 713.168 334.052 712.88C333.428 712.592 332.852 712.2 332.324 711.704L332.372 714.032V717.92H330.404V700.76ZM335.492 711.656C336.18 711.656 336.796 711.456 337.34 711.056C337.9 710.656 338.332 710.08 338.636 709.328C338.94 708.576 339.092 707.704 339.092 706.712C339.092 705.272 338.82 704.152 338.276 703.352C337.748 702.536 336.924 702.128 335.804 702.128C335.276 702.128 334.716 702.288 334.124 702.608C333.548 702.912 332.964 703.376 332.372 704V710.168C332.884 710.664 333.42 711.04 333.98 711.296C334.556 711.536 335.06 711.656 335.492 711.656ZM344.963 711.368H349.499V702.368H344.963V700.76H351.467V711.368H356.003V713H344.963V711.368ZM350.243 698.024C349.763 698.024 349.363 697.872 349.043 697.568C348.723 697.248 348.562 696.848 348.562 696.368C348.562 695.872 348.723 695.464 349.043 695.144C349.363 694.824 349.763 694.664 350.243 694.664C350.723 694.664 351.123 694.824 351.443 695.144C351.763 695.464 351.923 695.872 351.923 696.368C351.923 696.848 351.763 697.248 351.443 697.568C351.123 697.872 350.723 698.024 350.243 698.024ZM360.457 700.76H362.089L362.257 703.688H362.329C362.953 702.68 363.713 701.896 364.609 701.336C365.505 700.76 366.481 700.472 367.537 700.472C368.449 700.472 369.217 700.64 369.841 700.976L369.385 702.68C368.953 702.52 368.593 702.408 368.305 702.344C368.017 702.28 367.657 702.248 367.225 702.248C365.305 702.248 363.705 703.424 362.425 705.776V713H360.457V700.76ZM377.248 713.312C376.112 713.312 375.168 713 374.416 712.376C373.664 711.752 373.288 710.912 373.288 709.856C373.288 708.928 373.576 708.16 374.152 707.552C374.728 706.928 375.624 706.432 376.84 706.064C378.072 705.696 379.704 705.424 381.736 705.248C381.704 704.32 381.44 703.568 380.944 702.992C380.464 702.4 379.696 702.104 378.64 702.104C377.392 702.104 376.192 702.6 375.04 703.592L374.272 702.224C374.832 701.744 375.52 701.336 376.336 701C377.168 700.648 378.048 700.472 378.976 700.472C380.528 700.472 381.704 700.92 382.504 701.816C383.304 702.696 383.704 703.912 383.704 705.464V713H382.096L381.928 711.32H381.856C381.136 711.912 380.376 712.392 379.576 712.76C378.792 713.128 378.016 713.312 377.248 713.312ZM377.776 711.728C379.04 711.728 380.36 711.104 381.736 709.856V706.568C379.336 706.776 377.648 707.136 376.672 707.648C375.696 708.16 375.208 708.848 375.208 709.712C375.208 710.384 375.448 710.888 375.928 711.224C376.424 711.56 377.04 711.728 377.776 711.728ZM395.166 713.312C393.566 713.312 392.414 712.872 391.71 711.992C391.022 711.112 390.678 709.872 390.678 708.272V702.368H387.39V700.76H390.75V697.16L392.646 695.96V700.76H398.382V702.368H392.646V708.296C392.646 709.448 392.862 710.304 393.294 710.864C393.742 711.408 394.51 711.68 395.598 711.68C396.574 711.68 397.51 711.496 398.406 711.128L398.838 712.568C397.558 713.064 396.334 713.312 395.166 713.312ZM402.525 711.368H407.061V702.368H402.525V700.76H409.029V711.368H413.565V713H402.525V711.368ZM407.805 698.024C407.325 698.024 406.925 697.872 406.605 697.568C406.285 697.248 406.125 696.848 406.125 696.368C406.125 695.872 406.285 695.464 406.605 695.144C406.925 694.824 407.325 694.664 407.805 694.664C408.285 694.664 408.685 694.824 409.005 695.144C409.325 695.464 409.485 695.872 409.485 696.368C409.485 696.848 409.325 697.248 409.005 697.568C408.685 697.872 408.285 698.024 407.805 698.024ZM421.716 713.312C420.676 713.312 419.716 713.056 418.836 712.544C417.956 712.032 417.252 711.296 416.724 710.336C416.212 709.36 415.956 708.216 415.956 706.904C415.956 705.576 416.212 704.432 416.724 703.472C417.252 702.496 417.956 701.752 418.836 701.24C419.716 700.728 420.676 700.472 421.716 700.472C422.756 700.472 423.716 700.728 424.596 701.24C425.476 701.752 426.172 702.496 426.684 703.472C427.212 704.432 427.476 705.576 427.476 706.904C427.476 708.216 427.212 709.36 426.684 710.336C426.172 711.296 425.476 712.032 424.596 712.544C423.716 713.056 422.756 713.312 421.716 713.312ZM421.716 711.68C422.836 711.68 423.732 711.24 424.404 710.36C425.092 709.48 425.436 708.328 425.436 706.904C425.436 705.48 425.092 704.328 424.404 703.448C423.732 702.552 422.836 702.104 421.716 702.104C420.596 702.104 419.692 702.552 419.004 703.448C418.332 704.328 417.996 705.48 417.996 706.904C417.996 708.328 418.332 709.48 419.004 710.36C419.692 711.24 420.596 711.68 421.716 711.68ZM431.138 700.76H432.77L432.938 702.896H433.034C433.722 702.128 434.41 701.536 435.098 701.12C435.802 700.688 436.578 700.472 437.426 700.472C440.114 700.472 441.458 702.112 441.458 705.392V713H439.49V705.656C439.49 704.456 439.274 703.576 438.842 703.016C438.426 702.456 437.746 702.176 436.802 702.176C436.146 702.176 435.546 702.352 435.002 702.704C434.474 703.056 433.842 703.64 433.106 704.456V713H431.138V700.76ZM449.201 713.312C448.065 713.312 447.121 713 446.369 712.376C445.617 711.752 445.241 710.912 445.241 709.856C445.241 708.928 445.529 708.16 446.105 707.552C446.681 706.928 447.577 706.432 448.793 706.064C450.025 705.696 451.657 705.424 453.689 705.248C453.657 704.32 453.393 703.568 452.897 702.992C452.417 702.4 451.649 702.104 450.593 702.104C449.345 702.104 448.145 702.6 446.993 703.592L446.225 702.224C446.785 701.744 447.473 701.336 448.289 701C449.121 700.648 450.001 700.472 450.929 700.472C452.481 700.472 453.657 700.92 454.457 701.816C455.257 702.696 455.657 703.912 455.657 705.464V713H454.049L453.881 711.32H453.809C453.089 711.912 452.329 712.392 451.529 712.76C450.745 713.128 449.969 713.312 449.201 713.312ZM449.729 711.728C450.993 711.728 452.313 711.104 453.689 709.856V706.568C451.289 706.776 449.601 707.136 448.625 707.648C447.649 708.16 447.161 708.848 447.161 709.712C447.161 710.384 447.401 710.888 447.881 711.224C448.377 711.56 448.993 711.728 449.729 711.728ZM467.432 713.312C466.184 713.312 465.232 712.944 464.576 712.208C463.936 711.472 463.616 710.384 463.616 708.944V697.16H459.632V695.552H465.584V709.088C465.584 709.968 465.784 710.624 466.184 711.056C466.584 711.472 467.144 711.68 467.864 711.68C468.488 711.68 469.224 711.48 470.072 711.08L470.576 712.568C469.888 712.84 469.328 713.032 468.896 713.144C468.48 713.256 467.992 713.312 467.432 713.312Z" fill="#47067A"/>
<circle cx="970" cy="413" r="173.5" fill="white" stroke="black" stroke-width="3"/>
<path d="M893.76 406.16H903.48V407.84H895.776V412.832H902.28V414.536H895.776V420.296H903.72V422H893.76V406.16ZM911.295 422.312C910.159 422.312 909.215 422 908.463 421.376C907.711 420.752 907.335 419.912 907.335 418.856C907.335 417.928 907.623 417.16 908.199 416.552C908.775 415.928 909.671 415.432 910.887 415.064C912.119 414.696 913.751 414.424 915.783 414.248C915.751 413.32 915.487 412.568 914.991 411.992C914.511 411.4 913.743 411.104 912.687 411.104C911.439 411.104 910.239 411.6 909.087 412.592L908.319 411.224C908.879 410.744 909.567 410.336 910.383 410C911.215 409.648 912.095 409.472 913.023 409.472C914.575 409.472 915.751 409.92 916.551 410.816C917.351 411.696 917.751 412.912 917.751 414.464V422H916.143L915.975 420.32H915.903C915.183 420.912 914.423 421.392 913.623 421.76C912.839 422.128 912.063 422.312 911.295 422.312ZM911.823 420.728C913.087 420.728 914.407 420.104 915.783 418.856V415.568C913.383 415.776 911.695 416.136 910.719 416.648C909.743 417.16 909.255 417.848 909.255 418.712C909.255 419.384 909.495 419.888 909.975 420.224C910.471 420.56 911.087 420.728 911.823 420.728ZM927.221 422.312C926.149 422.312 925.125 422.136 924.149 421.784C923.173 421.416 922.293 420.952 921.509 420.392L922.469 419.096C923.173 419.64 923.901 420.056 924.653 420.344C925.421 420.616 926.301 420.752 927.293 420.752C928.301 420.752 929.069 420.568 929.597 420.2C930.141 419.832 930.413 419.36 930.413 418.784C930.413 418.288 930.125 417.856 929.549 417.488C928.989 417.12 928.013 416.752 926.621 416.384C925.309 416.048 924.237 415.592 923.405 415.016C922.589 414.424 922.181 413.728 922.181 412.928C922.181 411.92 922.605 411.096 923.453 410.456C924.317 409.8 925.525 409.472 927.077 409.472C927.909 409.472 928.741 409.616 929.573 409.904C930.405 410.192 931.133 410.56 931.757 411.008L930.797 412.304C929.629 411.44 928.389 411.008 927.077 411.008C926.053 411.008 925.317 411.176 924.869 411.512C924.421 411.848 924.197 412.288 924.197 412.832C924.197 413.312 924.501 413.72 925.109 414.056C925.717 414.392 926.597 414.712 927.749 415.016C929.381 415.448 930.565 415.944 931.301 416.504C932.037 417.048 932.405 417.768 932.405 418.664C932.405 419.336 932.197 419.952 931.781 420.512C931.381 421.056 930.789 421.496 930.005 421.832C929.221 422.152 928.293 422.312 927.221 422.312ZM937.316 427.208C936.74 427.208 936.228 427.128 935.78 426.968L936.188 425.408C936.556 425.52 936.908 425.576 937.244 425.576C938.028 425.576 938.676 425.344 939.188 424.88C939.7 424.416 940.124 423.76 940.46 422.912L940.796 422.048L935.348 409.76H937.34L940.196 416.648C940.372 417.048 940.532 417.448 940.676 417.848C940.836 418.232 940.996 418.608 941.156 418.976C941.22 419.152 941.292 419.344 941.372 419.552C941.452 419.744 941.54 419.952 941.636 420.176H941.732L942.164 418.976C942.42 418.224 942.692 417.448 942.98 416.648L945.524 409.76H947.396L942.284 423.008C941.772 424.32 941.124 425.344 940.34 426.08C939.556 426.832 938.548 427.208 937.316 427.208ZM972.385 422.312C970.785 422.312 969.633 421.872 968.929 420.992C968.241 420.112 967.897 418.872 967.897 417.272V411.368H964.609V409.76H967.969V406.16L969.865 404.96V409.76H975.601V411.368H969.865V417.296C969.865 418.448 970.081 419.304 970.513 419.864C970.961 420.408 971.729 420.68 972.817 420.68C973.793 420.68 974.729 420.496 975.625 420.128L976.057 421.568C974.777 422.064 973.553 422.312 972.385 422.312ZM984.544 422.312C983.504 422.312 982.544 422.056 981.664 421.544C980.784 421.032 980.08 420.296 979.552 419.336C979.04 418.36 978.784 417.216 978.784 415.904C978.784 414.576 979.04 413.432 979.552 412.472C980.08 411.496 980.784 410.752 981.664 410.24C982.544 409.728 983.504 409.472 984.544 409.472C985.584 409.472 986.544 409.728 987.424 410.24C988.304 410.752 989 411.496 989.512 412.472C990.04 413.432 990.304 414.576 990.304 415.904C990.304 417.216 990.04 418.36 989.512 419.336C989 420.296 988.304 421.032 987.424 421.544C986.544 422.056 985.584 422.312 984.544 422.312ZM984.544 420.68C985.664 420.68 986.56 420.24 987.232 419.36C987.92 418.48 988.264 417.328 988.264 415.904C988.264 414.48 987.92 413.328 987.232 412.448C986.56 411.552 985.664 411.104 984.544 411.104C983.424 411.104 982.52 411.552 981.832 412.448C981.16 413.328 980.824 414.48 980.824 415.904C980.824 417.328 981.16 418.48 981.832 419.36C982.52 420.24 983.424 420.68 984.544 420.68ZM1013.35 422.288C1011.7 422.288 1010.4 421.784 1009.44 420.776C1008.49 419.768 1008.02 418.184 1008.02 416.024V406.16H1010.04V416.048C1010.04 417.616 1010.33 418.76 1010.93 419.48C1011.52 420.184 1012.33 420.536 1013.35 420.536C1014.37 420.536 1015.18 420.184 1015.77 419.48C1016.38 418.76 1016.69 417.616 1016.69 416.048V406.16H1018.63V416.024C1018.63 418.184 1018.16 419.768 1017.21 420.776C1016.27 421.784 1014.98 422.288 1013.35 422.288ZM1027.96 422.312C1026.88 422.312 1025.86 422.136 1024.88 421.784C1023.91 421.416 1023.03 420.952 1022.24 420.392L1023.2 419.096C1023.91 419.64 1024.64 420.056 1025.39 420.344C1026.16 420.616 1027.04 420.752 1028.03 420.752C1029.04 420.752 1029.8 420.568 1030.33 420.2C1030.88 419.832 1031.15 419.36 1031.15 418.784C1031.15 418.288 1030.86 417.856 1030.28 417.488C1029.72 417.12 1028.75 416.752 1027.36 416.384C1026.04 416.048 1024.97 415.592 1024.14 415.016C1023.32 414.424 1022.92 413.728 1022.92 412.928C1022.92 411.92 1023.34 411.096 1024.19 410.456C1025.05 409.8 1026.26 409.472 1027.81 409.472C1028.64 409.472 1029.48 409.616 1030.31 409.904C1031.14 410.192 1031.87 410.56 1032.49 411.008L1031.53 412.304C1030.36 411.44 1029.12 411.008 1027.81 411.008C1026.79 411.008 1026.05 411.176 1025.6 411.512C1025.16 411.848 1024.93 412.288 1024.93 412.832C1024.93 413.312 1025.24 413.72 1025.84 414.056C1026.45 414.392 1027.33 414.712 1028.48 415.016C1030.12 415.448 1031.3 415.944 1032.04 416.504C1032.77 417.048 1033.14 417.768 1033.14 418.664C1033.14 419.336 1032.93 419.952 1032.52 420.512C1032.12 421.056 1031.52 421.496 1030.74 421.832C1029.96 422.152 1029.03 422.312 1027.96 422.312ZM1042.83 422.312C1041.66 422.312 1040.59 422.056 1039.63 421.544C1038.69 421.016 1037.94 420.272 1037.38 419.312C1036.83 418.336 1036.56 417.2 1036.56 415.904C1036.56 414.624 1036.83 413.496 1037.38 412.52C1037.94 411.544 1038.67 410.792 1039.59 410.264C1040.5 409.736 1041.47 409.472 1042.49 409.472C1044.14 409.472 1045.43 409.992 1046.38 411.032C1047.32 412.072 1047.79 413.464 1047.79 415.208C1047.79 415.656 1047.77 416.04 1047.72 416.36H1038.6C1038.65 417.672 1039.08 418.728 1039.9 419.528C1040.73 420.312 1041.79 420.704 1043.07 420.704C1043.72 420.704 1044.33 420.608 1044.89 420.416C1045.47 420.224 1046.04 419.936 1046.62 419.552L1047.31 420.872C1045.87 421.832 1044.38 422.312 1042.83 422.312ZM1045.97 414.92C1045.97 413.688 1045.67 412.736 1045.06 412.064C1044.45 411.376 1043.6 411.032 1042.51 411.032C1041.54 411.032 1040.67 411.384 1039.92 412.088C1039.17 412.792 1038.72 413.736 1038.58 414.92H1045.97Z" fill="#006341"/>
<circle cx="370" cy="429" r="123.5" fill="white" stroke="black" stroke-width="3"/>
<path d="M334.224 438.288C332.576 438.288 331.272 437.784 330.312 436.776C329.368 435.768 328.896 434.184 328.896 432.024V422.16H330.912V432.048C330.912 433.616 331.208 434.76 331.8 435.48C332.392 436.184 333.2 436.536 334.224 436.536C335.248 436.536 336.056 436.184 336.648 435.48C337.256 434.76 337.56 433.616 337.56 432.048V422.16H339.504V432.024C339.504 434.184 339.032 435.768 338.088 436.776C337.144 437.784 335.856 438.288 334.224 438.288ZM343.623 425.76H345.255L345.423 427.896H345.519C346.207 427.128 346.895 426.536 347.583 426.12C348.287 425.688 349.063 425.472 349.911 425.472C352.599 425.472 353.943 427.112 353.943 430.392V438H351.975V430.656C351.975 429.456 351.759 428.576 351.327 428.016C350.911 427.456 350.231 427.176 349.287 427.176C348.631 427.176 348.031 427.352 347.487 427.704C346.959 428.056 346.327 428.64 345.591 429.456V438H343.623V425.76ZM358.181 436.368H362.717V427.368H358.181V425.76H364.685V436.368H369.221V438H358.181V436.368ZM363.461 423.024C362.981 423.024 362.581 422.872 362.261 422.568C361.941 422.248 361.781 421.848 361.781 421.368C361.781 420.872 361.941 420.464 362.261 420.144C362.581 419.824 362.981 419.664 363.461 419.664C363.941 419.664 364.341 419.824 364.661 420.144C364.981 420.464 365.141 420.872 365.141 421.368C365.141 421.848 364.981 422.248 364.661 422.568C364.341 422.872 363.941 423.024 363.461 423.024ZM380.372 438.648L380.468 436.416C379.908 436.976 379.3 437.432 378.644 437.784C378.004 438.136 377.348 438.312 376.676 438.312C375.124 438.312 373.892 437.752 372.98 436.632C372.068 435.496 371.612 433.92 371.612 431.904C371.612 430.624 371.852 429.496 372.332 428.52C372.828 427.544 373.484 426.792 374.3 426.264C375.116 425.736 375.988 425.472 376.916 425.472C377.604 425.472 378.228 425.608 378.788 425.88C379.364 426.152 379.94 426.568 380.516 427.128H380.588L380.756 425.76H382.34V442.92H380.372V438.648ZM377.084 436.656C378.236 436.656 379.332 436.024 380.372 434.76V428.592C379.396 427.616 378.372 427.128 377.3 427.128C376.628 427.128 376.012 427.328 375.452 427.728C374.908 428.128 374.468 428.696 374.132 429.432C373.812 430.152 373.652 430.968 373.652 431.88C373.652 433.368 373.956 434.536 374.564 435.384C375.172 436.232 376.012 436.656 377.084 436.656ZM390.467 438.312C389.091 438.312 388.067 437.896 387.395 437.064C386.739 436.232 386.411 435 386.411 433.368V425.76H388.403V433.104C388.403 434.32 388.611 435.208 389.027 435.768C389.443 436.328 390.131 436.608 391.091 436.608C391.747 436.608 392.347 436.432 392.891 436.08C393.435 435.712 394.043 435.112 394.715 434.28V425.76H396.682V438H395.075L394.907 435.84H394.811C394.171 436.624 393.499 437.232 392.795 437.664C392.091 438.096 391.315 438.312 390.467 438.312ZM406.873 438.312C405.705 438.312 404.641 438.056 403.681 437.544C402.737 437.016 401.985 436.272 401.425 435.312C400.881 434.336 400.609 433.2 400.609 431.904C400.609 430.624 400.881 429.496 401.425 428.52C401.985 427.544 402.721 426.792 403.633 426.264C404.545 425.736 405.513 425.472 406.537 425.472C408.185 425.472 409.481 425.992 410.425 427.032C411.369 428.072 411.841 429.464 411.841 431.208C411.841 431.656 411.817 432.04 411.769 432.36H402.649C402.697 433.672 403.129 434.728 403.945 435.528C404.777 436.312 405.833 436.704 407.113 436.704C407.769 436.704 408.377 436.608 408.937 436.416C409.513 436.224 410.089 435.936 410.665 435.552L411.361 436.872C409.921 437.832 408.425 438.312 406.873 438.312ZM410.017 430.92C410.017 429.688 409.713 428.736 409.105 428.064C408.497 427.376 407.649 427.032 406.561 427.032C405.585 427.032 404.721 427.384 403.969 428.088C403.217 428.792 402.769 429.736 402.625 430.92H410.017Z" fill="#7D0035"/>
</svg>
