<svg width="50" height="50" viewBox="0 0 50 50" fill="none" xmlns="http://www.w3.org/2000/svg">
<g>
<path d="M48.5578 1.44238H1.44238V48.5578H48.5578V1.44238Z" stroke="white" stroke-width="5" stroke-miterlimit="10"/>
<path d="M13.8076 15.1635L15.6634 6.625H18.0672V24.25H15.8557V17.0577L15.9518 13.6923L14.4134 21.3846H13.1826L11.6441 13.6923L11.7403 17.0577V24.25H9.50952V6.625H11.9134L13.8076 15.1635Z" fill="white"/>
<path d="M25.25 16.4615V24.25H22.9712V6.625H27.4904C28.0499 6.63002 28.585 6.8545 28.9807 7.25013C29.3763 7.64576 29.6008 8.1809 29.6058 8.74038V14.3462C29.6008 14.9056 29.3763 15.4408 28.9807 15.8364C28.585 16.232 28.0499 16.4565 27.4904 16.4615H25.25ZM25.25 8.83654V14.25H26.7693C26.9154 14.2505 27.0563 14.1955 27.1635 14.0962C27.2152 14.0428 27.2555 13.9795 27.2819 13.91C27.3084 13.8406 27.3204 13.7665 27.3173 13.6923V9.39423C27.3214 9.32133 27.3098 9.24841 27.2833 9.18039C27.2567 9.11237 27.2159 9.05086 27.1635 9C27.1121 8.94777 27.0507 8.9064 26.9829 8.87832C26.9152 8.85024 26.8426 8.83604 26.7693 8.83654H25.25Z" fill="white"/>
<path d="M38.375 16.5288H36.5385V24.2212H34.2212V6.625H36.5385V14.3173H38.4135V6.625H40.702V24.25H38.375V16.5288Z" fill="white"/>
<path d="M11.6731 44.4424C11.3952 44.4453 11.1196 44.3914 10.8633 44.2839C10.607 44.1764 10.3754 44.0177 10.1827 43.8174C9.9791 43.6232 9.81833 43.3886 9.7107 43.1286C9.60307 42.8686 9.55096 42.589 9.55771 42.3078V26.8174H11.8366V41.6731C11.8347 41.7481 11.8483 41.8226 11.8764 41.892C11.9046 41.9615 11.9466 42.0244 12 42.077C12.0509 42.1294 12.1124 42.1702 12.1804 42.1968C12.2484 42.2233 12.3214 42.2349 12.3942 42.2308H13.2596C13.3323 42.2331 13.4047 42.2207 13.4725 42.1943C13.5403 42.1678 13.6019 42.1279 13.6539 42.077C13.7055 42.0236 13.7458 41.9603 13.7723 41.8909C13.7987 41.8215 13.8108 41.7474 13.8077 41.6731V26.8174H16.0962V42.3078C16.0912 42.8672 15.8667 43.4024 15.471 43.798C15.0754 44.1936 14.5403 44.4181 13.9808 44.4231L11.6731 44.4424Z" fill="white"/>
<path d="M29 44.4424H26.6442L24.9134 38.4616L23.1634 44.4039H20.8269L23.6634 34.9808L21.1538 26.8174H23.5288L24.9038 31.8943L26.3173 26.8174H28.6058L26.125 35.0193L29 44.4424Z" fill="white"/>
<path d="M33.9807 44.4424V26.8174H38.4615C39.021 26.8224 39.5561 27.0469 39.9517 27.4425C40.3474 27.8381 40.5718 28.3733 40.5769 28.9328V42.3078C40.5718 42.8673 40.3474 43.4024 39.9517 43.798C39.5561 44.1937 39.021 44.4181 38.4615 44.4232L33.9807 44.4424ZM36.2596 29.0578V42.2308H37.7788C37.8515 42.2332 37.9239 42.2207 37.9917 42.1943C38.0594 42.1678 38.1211 42.1279 38.173 42.077C38.2247 42.0236 38.265 41.9603 38.2914 41.8909C38.3179 41.8215 38.3299 41.7474 38.3269 41.6732V29.5866C38.331 29.5137 38.3193 29.4408 38.2928 29.3728C38.2663 29.3048 38.2254 29.2432 38.173 29.1924C38.1216 29.1402 38.0602 29.0988 37.9925 29.0707C37.9248 29.0426 37.8521 29.0284 37.7788 29.0289L36.2596 29.0578Z" fill="white"/>
</g>
</svg>
