<svg width="793" height="491" viewBox="0 0 793 491" fill="none" xmlns="http://www.w3.org/2000/svg">
<path d="M303 490.038C432.609 490.038 556.91 438.514 648.557 346.802C740.204 255.09 791.691 130.701 791.691 1.00001" stroke="#0F4C81"/>
<path d="M1 187.825C1 267.977 32.8178 344.846 89.4537 401.522C146.09 458.198 222.905 490.039 303 490.039" stroke="#0F4C81"/>
<path d="M187.694 1.00092C138.181 1.00092 90.6955 20.684 55.6843 55.7201C20.673 90.7562 1.00391 138.275 1.00391 187.824" stroke="#0F4C81"/>
<path d="M187.691 1.00171C218.273 1.00171 247.602 13.1588 269.227 34.7987C290.851 56.4386 303 85.7886 303 116.392" stroke="#0F4C81"/>
<path d="M231.619 187.823C240.993 187.823 250.275 185.976 258.935 182.386C267.596 178.796 275.465 173.534 282.093 166.901C288.721 160.268 293.979 152.394 297.566 143.727C301.154 135.061 303 125.772 303 116.391" stroke="#0F4C81"/>
<path d="M231.622 187.824C225.854 187.824 220.142 186.687 214.812 184.478C209.483 182.269 204.64 179.031 200.561 174.949C196.482 170.867 193.247 166.021 191.039 160.688C188.832 155.355 187.695 149.639 187.695 143.866" stroke="#0F4C81"/>
<path d="M215.149 116.392C211.544 116.392 207.974 117.102 204.643 118.483C201.312 119.864 198.286 121.887 195.736 124.439C193.187 126.99 191.165 130.018 189.785 133.352C188.405 136.685 187.695 140.258 187.695 143.865" stroke="#0F4C81"/>
<path d="M215.145 116.393C219.514 116.393 223.703 118.129 226.793 121.221C229.882 124.312 231.617 128.505 231.617 132.876" stroke="#0F4C81"/>
<path d="M215.148 132.876H231.621" stroke="#0F4C81"/>
<path d="M215.148 143.865V116.391" stroke="#0F4C81"/>
<path d="M220.637 132.876V143.865" stroke="#0F4C81"/>
<path d="M220.637 138.371H215.146" stroke="#0F4C81"/>
<path d="M231.621 143.866H187.694" stroke="#0F4C81"/>
<path d="M231.621 116.391V187.824" stroke="#0F4C81"/>
<path d="M187.69 116.392L303 116.392" stroke="#0F4C81"/>
<path d="M187.691 187.824L187.691 1" stroke="#0F4C81"/>
<path d="M303 187.825L0.999288 187.825" stroke="#0F4C81"/>
<path d="M303.281 1L303.281 490.316" stroke="#0F4C81"/>
<path d="M220.64 143.865C223.552 143.865 226.345 142.707 228.405 140.646C230.464 138.585 231.621 135.79 231.621 132.876" stroke="#0F4C81"/>
<path d="M220.639 143.865C219.918 143.865 219.204 143.723 218.538 143.447C217.872 143.171 217.266 142.766 216.757 142.256C216.247 141.746 215.842 141.14 215.566 140.474C215.29 139.807 215.148 139.093 215.148 138.371" stroke="#0F4C81"/>
<path d="M220.646 132.886C219.925 132.886 219.212 133.028 218.545 133.305C217.879 133.581 217.274 133.985 216.764 134.496C216.254 135.006 215.85 135.611 215.574 136.278C215.298 136.945 215.156 137.659 215.156 138.38" stroke="#0F4C81"/>
</svg>
