<svg width="792" height="1282" viewBox="0 0 792 1282" fill="none" xmlns="http://www.w3.org/2000/svg">
<g clip-path="url(#clip0_1513_216)">
<path d="M0 0.5C209.705 0.500008 411.534 83.7074 559.818 232.096C708.101 380.485 791.406 581.743 791.406 791.596" stroke="#0062A9"/>
<path d="M302.715 1280.63C432.324 1280.63 556.625 1229.11 648.272 1137.4C739.919 1045.69 791.406 921.297 791.406 791.596" stroke="#0062A9"/>
<g clip-path="url(#clip1_1513_216)">
<path d="M302.715 1280.63C432.324 1280.63 556.625 1229.11 648.272 1137.4C739.919 1045.69 791.406 921.297 791.406 791.596" stroke="white"/>
</g>
<path d="M0.714844 978.421C0.714848 1058.57 32.5326 1135.44 89.1686 1192.12C145.805 1248.79 222.619 1280.63 302.715 1280.63" stroke="white"/>
<path d="M187.409 791.597C137.896 791.597 90.4104 811.28 55.3991 846.316C20.3879 881.352 0.71875 928.871 0.71875 978.42" stroke="white"/>
<path d="M187.406 791.598C217.988 791.598 247.317 803.755 268.942 825.395C290.566 847.035 302.715 876.385 302.715 906.988" stroke="white"/>
<path d="M231.334 978.419C240.708 978.419 249.99 976.572 258.65 972.982C267.31 969.392 275.179 964.13 281.808 957.497C288.436 950.864 293.694 942.99 297.281 934.323C300.869 925.657 302.715 916.368 302.715 906.987" stroke="white"/>
<path d="M231.337 978.42C225.568 978.42 219.856 977.283 214.527 975.074C209.197 972.865 204.355 969.627 200.276 965.545C196.197 961.463 192.961 956.617 190.754 951.284C188.546 945.951 187.41 940.235 187.41 934.462" stroke="white"/>
<path d="M214.864 906.988C211.259 906.988 207.689 907.698 204.358 909.079C201.027 910.46 198.001 912.483 195.451 915.035C192.902 917.586 190.88 920.614 189.5 923.948C188.12 927.281 187.41 930.853 187.41 934.461" stroke="white"/>
<path d="M214.86 906.989C219.229 906.989 223.418 908.725 226.507 911.817C229.597 914.908 231.332 919.101 231.332 923.472" stroke="white"/>
<path d="M220.355 934.461C223.267 934.461 226.06 933.303 228.12 931.242C230.179 929.181 231.336 926.386 231.336 923.472" stroke="white"/>
<path d="M220.354 934.461C219.633 934.461 218.919 934.319 218.253 934.043C217.586 933.767 216.981 933.362 216.471 932.852C215.962 932.342 215.557 931.736 215.281 931.07C215.005 930.403 214.863 929.689 214.863 928.967" stroke="white"/>
<path d="M220.361 923.482C219.64 923.482 218.926 923.625 218.26 923.901C217.594 924.177 216.989 924.581 216.479 925.092C215.969 925.602 215.565 926.207 215.289 926.874C215.013 927.541 214.871 928.255 214.871 928.977" stroke="white"/>
</g>
<defs>
<clipPath id="clip0_1513_216">
<rect width="1282" height="792" fill="white" transform="translate(792) rotate(90)"/>
</clipPath>
<clipPath id="clip1_1513_216">
<rect width="222" height="488" fill="white" transform="translate(791 1059) rotate(90)"/>
</clipPath>
</defs>
</svg>
