<svg width="163" height="34" viewBox="0 0 163 34" fill="none" xmlns="http://www.w3.org/2000/svg">
<path d="M0.225586 13.2493V0.126953H1.1052L6.834 6.59857L12.5628 0.126953H13.4499V13.2493H10.8036V5.63566L6.834 10.0023L2.86444 5.63566V13.2493H0.225586Z" fill="white"/>
<path d="M15.3821 13.2493L20.6448 0.126953H23.2836L28.5463 13.2419H25.7796L25.0278 11.2265H19.0133L18.2164 13.2419L15.3821 13.2493ZM22.0657 3.62774L20.0583 8.61395H24.0204L22.0657 3.62774Z" fill="white"/>
<path d="M41.3495 0.126953V2.57527H36.9514V13.2493H34.305V2.57527H29.8994V0.126953H41.3495Z" fill="white"/>
<path d="M54.1004 0.126953V2.57527H49.7324V13.2493H47.0484V2.57527H42.6428V0.126953H54.1004Z" fill="white"/>
<path d="M56.0625 13.2493V0.126953H58.7089V5.35202H64.8662V0.126953H67.5051V13.2419H64.8662V7.82272H58.7089V13.2493H56.0625Z" fill="white"/>
<path d="M70.3245 13.2492V0.134277H80.0378V2.57513H72.9708V5.37427H78.2335V7.81512H72.9708V10.8009H80.0153V13.2492H70.3245Z" fill="white"/>
<path d="M87.5707 0.037322H89.9765L91.4802 4.40398L92.9838 0.037322H95.3745L93.1191 6.00882L94.8407 10.2784L98.5998 0H101.419L96.0812 13.2493H93.8258L91.4726 7.68831L89.142 13.2493H86.8866L81.6089 0H84.3906L88.1496 10.2784L89.8187 6.04614L87.5707 0.037322Z" fill="white"/>
<path d="M108.652 13.2493V0.126953H114.388C117.47 0.126953 119.012 1.38594 119.012 3.90393C119.012 6.51646 117.473 7.82272 114.395 7.82272H111.268V13.2493H108.652ZM111.298 5.37441H114.997C116.064 5.37441 116.606 4.8743 116.636 3.93378C116.666 2.99327 116.072 2.62005 115.027 2.58273H111.268L111.298 5.37441Z" fill="white"/>
<path d="M120.989 13.2493V0.126953H123.635V5.35202H129.792V0.126953H132.431V13.2419H129.792V7.82272H123.635V13.2493H120.989Z" fill="white"/>
<path d="M134.589 13.2493L139.852 0.126953H142.491L147.753 13.2419H144.987L144.235 11.2265H138.22L137.423 13.2419L134.589 13.2493ZM141.273 3.62774L139.258 8.61395H143.227L141.273 3.62774Z" fill="white"/>
<path d="M149.776 13.2493V0.126953H150.655L156.377 6.59857L162.113 0.126953H163V13.2493H160.354V5.63566L156.377 10.0023L152.414 5.6282V13.2419L149.776 13.2493Z" fill="white"/>
<path d="M0.878906 20.8164V29.166C0.878906 30.5137 1.4209 31.6562 2.50488 32.5938C3.58887 33.5312 4.95117 34 6.5918 34C8.23242 34 9.59473 33.5312 10.6787 32.5938C11.7627 31.6562 12.3047 30.5137 12.3047 29.166V20.8164H9.66797V28.4629C9.66797 29.459 9.375 30.1914 8.78906 30.6602C8.20312 31.1289 7.4707 31.3633 6.5918 31.3633C5.71289 31.3633 4.98047 31.1289 4.39453 30.6602C3.80859 30.1914 3.51562 29.459 3.51562 28.4629V20.8164H0.878906ZM19.5029 27.1357L14.8887 20.8164H17.9824L21.0586 25.0088L24.1348 20.8164H27.2285L22.6143 27.1357L27.6504 34H24.5215L21.0586 29.2627L17.5957 34H14.4668L19.5029 27.1357ZM38.1533 31.3721V23.4531H40.5967C42.9346 23.4531 44.1064 24.7715 44.1123 27.4082C44.1064 30.0449 42.9346 31.3662 40.5967 31.3721H38.1533ZM40.5967 34C44.6982 34 46.749 31.8027 46.749 27.4082C46.749 23.0078 44.6982 20.8076 40.5967 20.8076H35.5166V34H40.5967ZM49.5439 34V20.8252L59.2295 20.8164V23.2773H52.1807V26.0898H57.4629V28.542H52.1807V31.5391H59.2119V34H49.5439ZM66.1729 20.8164C67.3975 20.8164 68.3467 20.9629 69.0205 21.2559C69.6943 21.5488 70.3242 21.9883 70.9102 22.5742L69.1523 24.332C68.5664 23.6289 67.7461 23.2773 66.6914 23.2773C65.6367 23.2773 64.9629 23.5264 64.6699 24.0244C64.377 24.5225 64.377 24.9473 64.6699 25.2988C64.9629 25.6504 65.6367 25.9141 66.6914 26.0898C67.8047 26.207 68.8154 26.5732 69.7236 27.1885C70.6318 27.8037 71.0859 28.7852 71.0859 30.1328C71.0859 31.1875 70.5996 32.0957 69.627 32.8574C68.6602 33.6191 67.5322 34 66.2432 34C65.0186 34 63.9961 33.8242 63.1758 33.4727C62.3555 33.1211 61.6523 32.6523 61.0664 32.0664L62.8242 30.3086C63.4102 31.0117 64.4062 31.4219 65.8125 31.5391C66.9844 31.5391 67.7139 31.29 68.001 30.792C68.2939 30.2939 68.2939 29.7959 68.001 29.2979C67.7139 28.7998 66.9844 28.4922 65.8125 28.375C64.7578 28.2578 63.791 27.9355 62.9121 27.4082C62.0332 26.8809 61.5938 25.9727 61.5938 24.6836C61.5938 23.5176 62.0918 22.583 63.0879 21.8799C64.0898 21.1709 65.1182 20.8164 66.1729 20.8164ZM73.4502 20.8076H76.0781V34H73.4502V20.8076ZM84.5947 34C82.7314 33.9941 81.167 33.3643 79.9014 32.1104C78.6416 30.8506 78.0117 29.2744 78.0117 27.3818C78.0176 25.5303 78.6504 23.9746 79.9102 22.7148C81.1699 21.4492 82.7314 20.8164 84.5947 20.8164C86.4756 20.8164 88.0898 21.4023 89.4375 22.5742L87.6797 24.499C86.7832 23.7959 85.7549 23.4443 84.5947 23.4443C83.4111 23.4502 82.4561 23.8193 81.7295 24.5518C81.0088 25.2842 80.6484 26.2217 80.6484 27.3643C80.6543 28.5889 81.0205 29.5615 81.7471 30.2822C82.4736 31.0029 83.4287 31.3633 84.6123 31.3633C85.5615 31.3633 86.291 31.1758 86.8008 30.8008V28.542L85.043 28.5508V26.0898H89.4375V32.2422C88.0957 33.4141 86.4814 34 84.5947 34ZM92.1006 34V20.8164H92.9795L101.241 29.0781V20.8164H103.878V34H102.911L94.7373 25.8262V34H92.1006ZM106.585 34V20.8252L116.271 20.8164V23.2773H109.222V26.0898H114.504V28.542H109.222V31.5391H116.253V34H106.585ZM121.562 26.0898H125.253C126.313 26.0723 126.858 25.5889 126.888 24.6396C126.858 23.7725 126.322 23.3213 125.279 23.2861H121.562V26.0898ZM126.861 28.252L130.148 34H127.125L123.97 28.5508H121.562V34H118.925V20.8164H124.673C127.749 20.8164 129.287 22.082 129.287 24.6133C129.287 26.5176 128.479 27.7305 126.861 28.252Z" fill="white"/>
</svg>
