<svg width="24" height="24" viewBox="0 0 24 24" fill="none" xmlns="http://www.w3.org/2000/svg">
<path d="M16.5 0H7.5C3.35625 0 0 3.35625 0 7.5V16.5C0 20.6438 3.35625 24 7.5 24H16.5C20.6438 24 24 20.6438 24 16.5V7.5C24 3.35625 20.6438 0 16.5 0ZM21.75 16.5C21.75 19.3969 19.3969 21.75 16.5 21.75H7.5C4.60313 21.75 2.25 19.3969 2.25 16.5V7.5C2.25 4.60313 4.60313 2.25 7.5 2.25H16.5C19.3969 2.25 21.75 4.60313 21.75 7.5V16.5Z" fill="white"/>
<path d="M12 6C8.68594 6 6 8.68594 6 12C6 15.3141 8.68594 18 12 18C15.3141 18 18 15.3141 18 12C18 8.68594 15.3141 6 12 6ZM12 15.75C9.93281 15.75 8.25 14.0672 8.25 12C8.25 9.93281 9.93281 8.25 12 8.25C14.0672 8.25 15.75 9.93281 15.75 12C15.75 14.0672 14.0672 15.75 12 15.75Z" fill="white"/>
<path d="M18.45 6.35154C18.8927 6.35154 19.2516 5.99267 19.2516 5.54998C19.2516 5.10728 18.8927 4.74841 18.45 4.74841C18.0073 4.74841 17.6484 5.10728 17.6484 5.54998C17.6484 5.99267 18.0073 6.35154 18.45 6.35154Z" fill="white"/>
</svg>
