<svg width="513" height="436" viewBox="0 0 513 436" fill="none" xmlns="http://www.w3.org/2000/svg">
<path d="M75 317.042L248.802 418M75 317.042L76.278 117.681M75 317.042H422.604M75 317.042L248.802 18M75 317.042L422.604 117.681M248.802 418L422.604 317.042M248.802 418L422.604 117.681M248.802 418L76.278 117.681M248.802 418V18M422.604 317.042V117.681M422.604 317.042L248.802 18M422.604 317.042L76.278 117.681M422.604 117.681L248.802 18M422.604 117.681H76.278M248.802 18L76.278 117.681" stroke="black"/>
<path d="M214.356 4.08H216.6C217.528 4.08 218.232 4.256 218.712 4.608C219.2 4.952 219.444 5.524 219.444 6.324C219.444 7.108 219.192 7.7 218.688 8.1C218.192 8.492 217.496 8.688 216.6 8.688H215.064V12H214.356V4.08ZM216.456 8.088C217.232 8.088 217.804 7.948 218.172 7.668C218.54 7.388 218.724 6.94 218.724 6.324C218.724 5.708 218.544 5.276 218.184 5.028C217.824 4.78 217.248 4.656 216.456 4.656H215.064V8.088H216.456ZM221.215 4.08H221.935V7.5H225.655V4.08H226.375V12H225.655V8.112H221.935V12H221.215V4.08ZM228.627 11.388H230.631V4.68H228.627V4.08H233.355V4.68H231.351V11.388H233.355V12H228.627V11.388ZM236.314 4.08H237.01V11.388H241.066V12H236.314V4.08ZM245.381 12.144C244.805 12.144 244.289 11.976 243.833 11.64C243.385 11.296 243.033 10.812 242.777 10.188C242.529 9.564 242.405 8.836 242.405 8.004C242.405 7.18 242.529 6.464 242.777 5.856C243.033 5.24 243.385 4.768 243.833 4.44C244.289 4.104 244.805 3.936 245.381 3.936C245.957 3.936 246.469 4.104 246.917 4.44C247.373 4.768 247.725 5.24 247.973 5.856C248.229 6.472 248.357 7.188 248.357 8.004C248.357 8.836 248.229 9.564 247.973 10.188C247.725 10.812 247.373 11.296 246.917 11.64C246.469 11.976 245.957 12.144 245.381 12.144ZM245.381 11.508C245.829 11.508 246.221 11.364 246.557 11.076C246.893 10.788 247.153 10.38 247.337 9.852C247.529 9.316 247.625 8.7 247.625 8.004C247.625 7.308 247.529 6.704 247.337 6.192C247.153 5.672 246.893 5.272 246.557 4.992C246.221 4.712 245.829 4.572 245.381 4.572C244.933 4.572 244.541 4.712 244.205 4.992C243.869 5.272 243.605 5.672 243.413 6.192C243.229 6.704 243.137 7.308 243.137 8.004C243.137 8.7 243.229 9.316 243.413 9.852C243.605 10.38 243.869 10.788 244.205 11.076C244.541 11.364 244.933 11.508 245.381 11.508ZM252.673 12.144C252.097 12.144 251.569 12.04 251.089 11.832C250.609 11.616 250.197 11.324 249.853 10.956L250.297 10.452C250.601 10.78 250.957 11.04 251.365 11.232C251.781 11.416 252.217 11.508 252.673 11.508C253.281 11.508 253.761 11.372 254.113 11.1C254.465 10.828 254.641 10.468 254.641 10.02C254.641 9.724 254.577 9.484 254.449 9.3C254.329 9.116 254.173 8.972 253.981 8.868C253.797 8.756 253.517 8.616 253.141 8.448L251.965 7.944C251.469 7.744 251.057 7.488 250.729 7.176C250.409 6.864 250.249 6.452 250.249 5.94C250.249 5.556 250.353 5.212 250.561 4.908C250.777 4.604 251.073 4.368 251.449 4.2C251.825 4.024 252.249 3.936 252.721 3.936C253.201 3.936 253.645 4.024 254.053 4.2C254.461 4.368 254.805 4.596 255.085 4.884L254.689 5.352C254.129 4.832 253.473 4.572 252.721 4.572C252.193 4.572 251.769 4.692 251.449 4.932C251.137 5.164 250.981 5.484 250.981 5.892C250.981 6.156 251.049 6.38 251.185 6.564C251.329 6.74 251.489 6.88 251.665 6.984C251.849 7.088 252.105 7.212 252.433 7.356L253.597 7.86C253.973 8.036 254.281 8.208 254.521 8.376C254.769 8.536 254.969 8.748 255.121 9.012C255.281 9.268 255.361 9.584 255.361 9.96C255.361 10.368 255.249 10.74 255.025 11.076C254.809 11.404 254.497 11.664 254.089 11.856C253.681 12.048 253.209 12.144 252.673 12.144ZM259.772 12.144C259.196 12.144 258.68 11.976 258.224 11.64C257.776 11.296 257.424 10.812 257.168 10.188C256.92 9.564 256.796 8.836 256.796 8.004C256.796 7.18 256.92 6.464 257.168 5.856C257.424 5.24 257.776 4.768 258.224 4.44C258.68 4.104 259.196 3.936 259.772 3.936C260.348 3.936 260.86 4.104 261.308 4.44C261.764 4.768 262.116 5.24 262.364 5.856C262.62 6.472 262.748 7.188 262.748 8.004C262.748 8.836 262.62 9.564 262.364 10.188C262.116 10.812 261.764 11.296 261.308 11.64C260.86 11.976 260.348 12.144 259.772 12.144ZM259.772 11.508C260.22 11.508 260.612 11.364 260.948 11.076C261.284 10.788 261.544 10.38 261.728 9.852C261.92 9.316 262.016 8.7 262.016 8.004C262.016 7.308 261.92 6.704 261.728 6.192C261.544 5.672 261.284 5.272 260.948 4.992C260.612 4.712 260.22 4.572 259.772 4.572C259.324 4.572 258.932 4.712 258.596 4.992C258.26 5.272 257.996 5.672 257.804 6.192C257.62 6.704 257.528 7.308 257.528 8.004C257.528 8.7 257.62 9.316 257.804 9.852C257.996 10.38 258.26 10.788 258.596 11.076C258.932 11.364 259.324 11.508 259.772 11.508ZM264.723 4.08H266.967C267.895 4.08 268.599 4.256 269.079 4.608C269.567 4.952 269.811 5.524 269.811 6.324C269.811 7.108 269.559 7.7 269.055 8.1C268.559 8.492 267.863 8.688 266.967 8.688H265.431V12H264.723V4.08ZM266.823 8.088C267.599 8.088 268.171 7.948 268.539 7.668C268.907 7.388 269.091 6.94 269.091 6.324C269.091 5.708 268.911 5.276 268.551 5.028C268.191 4.78 267.615 4.656 266.823 4.656H265.431V8.088H266.823ZM271.583 4.08H272.303V7.5H276.023V4.08H276.743V12H276.023V8.112H272.303V12H271.583V4.08ZM280.998 9.108L278.31 4.08H279.054L280.386 6.612L280.818 7.452L281.358 8.46H281.406L281.754 7.812C281.85 7.628 281.95 7.436 282.054 7.236C282.166 7.028 282.282 6.808 282.402 6.576L283.674 4.08H284.406L281.718 9.108V12H280.998V9.108Z" fill="black"/>
<path d="M1.356 113.08H3.6C4.528 113.08 5.232 113.256 5.712 113.608C6.2 113.952 6.444 114.524 6.444 115.324C6.444 116.108 6.192 116.7 5.688 117.1C5.192 117.492 4.496 117.688 3.6 117.688H2.064V121H1.356V113.08ZM3.456 117.088C4.232 117.088 4.804 116.948 5.172 116.668C5.54 116.388 5.724 115.94 5.724 115.324C5.724 114.708 5.544 114.276 5.184 114.028C4.824 113.78 4.248 113.656 3.456 113.656H2.064V117.088H3.456ZM10.8913 121.144C10.3153 121.144 9.78731 121.04 9.30731 120.832C8.82731 120.616 8.41531 120.324 8.07131 119.956L8.51531 119.452C8.81931 119.78 9.17531 120.04 9.58331 120.232C9.99931 120.416 10.4353 120.508 10.8913 120.508C11.4993 120.508 11.9793 120.372 12.3313 120.1C12.6833 119.828 12.8593 119.468 12.8593 119.02C12.8593 118.724 12.7953 118.484 12.6673 118.3C12.5473 118.116 12.3913 117.972 12.1993 117.868C12.0153 117.756 11.7353 117.616 11.3593 117.448L10.1833 116.944C9.68731 116.744 9.27531 116.488 8.94731 116.176C8.62731 115.864 8.46731 115.452 8.46731 114.94C8.46731 114.556 8.57131 114.212 8.77931 113.908C8.99531 113.604 9.29131 113.368 9.66731 113.2C10.0433 113.024 10.4673 112.936 10.9393 112.936C11.4193 112.936 11.8633 113.024 12.2713 113.2C12.6793 113.368 13.0233 113.596 13.3033 113.884L12.9073 114.352C12.3473 113.832 11.6913 113.572 10.9393 113.572C10.4113 113.572 9.98731 113.692 9.66731 113.932C9.35531 114.164 9.19931 114.484 9.19931 114.892C9.19931 115.156 9.26731 115.38 9.40331 115.564C9.54731 115.74 9.70731 115.88 9.88331 115.984C10.0673 116.088 10.3233 116.212 10.6513 116.356L11.8153 116.86C12.1913 117.036 12.4993 117.208 12.7393 117.376C12.9873 117.536 13.1873 117.748 13.3393 118.012C13.4993 118.268 13.5793 118.584 13.5793 118.96C13.5793 119.368 13.4673 119.74 13.2433 120.076C13.0273 120.404 12.7153 120.664 12.3073 120.856C11.8993 121.048 11.4273 121.144 10.8913 121.144ZM17.6306 118.108L14.9426 113.08H15.6866L17.0186 115.612L17.4506 116.452L17.9906 117.46H18.0386L18.3866 116.812C18.4826 116.628 18.5826 116.436 18.6866 116.236C18.7986 116.028 18.9146 115.808 19.0346 115.576L20.3066 113.08H21.0386L18.3506 118.108V121H17.6306V118.108ZM25.7979 121.144C25.1419 121.144 24.5579 120.976 24.0459 120.64C23.5419 120.304 23.1459 119.828 22.8579 119.212C22.5699 118.588 22.4259 117.856 22.4259 117.016C22.4259 116.192 22.5699 115.472 22.8579 114.856C23.1459 114.24 23.5499 113.768 24.0699 113.44C24.5899 113.104 25.1859 112.936 25.8579 112.936C26.2979 112.936 26.6939 113.024 27.0459 113.2C27.4059 113.376 27.7059 113.6 27.9459 113.872L27.5379 114.34C27.0659 113.828 26.5059 113.572 25.8579 113.572C25.3139 113.572 24.8379 113.712 24.4299 113.992C24.0219 114.272 23.7099 114.672 23.4939 115.192C23.2779 115.712 23.1699 116.32 23.1699 117.016C23.1699 117.72 23.2779 118.336 23.4939 118.864C23.7099 119.384 24.0179 119.788 24.4179 120.076C24.8259 120.364 25.2979 120.508 25.8339 120.508C26.2099 120.508 26.5499 120.432 26.8539 120.28C27.1579 120.12 27.4539 119.884 27.7419 119.572L28.1619 120.016C27.8419 120.384 27.4899 120.664 27.1059 120.856C26.7219 121.048 26.2859 121.144 25.7979 121.144ZM29.8013 113.08H30.5213V116.5H34.2413V113.08H34.9613V121H34.2413V117.112H30.5213V121H29.8013V113.08ZM39.5766 121.144C39.0006 121.144 38.4846 120.976 38.0286 120.64C37.5806 120.296 37.2286 119.812 36.9726 119.188C36.7246 118.564 36.6006 117.836 36.6006 117.004C36.6006 116.18 36.7246 115.464 36.9726 114.856C37.2286 114.24 37.5806 113.768 38.0286 113.44C38.4846 113.104 39.0006 112.936 39.5766 112.936C40.1526 112.936 40.6646 113.104 41.1126 113.44C41.5686 113.768 41.9206 114.24 42.1686 114.856C42.4246 115.472 42.5526 116.188 42.5526 117.004C42.5526 117.836 42.4246 118.564 42.1686 119.188C41.9206 119.812 41.5686 120.296 41.1126 120.64C40.6646 120.976 40.1526 121.144 39.5766 121.144ZM39.5766 120.508C40.0246 120.508 40.4166 120.364 40.7526 120.076C41.0886 119.788 41.3486 119.38 41.5326 118.852C41.7246 118.316 41.8206 117.7 41.8206 117.004C41.8206 116.308 41.7246 115.704 41.5326 115.192C41.3486 114.672 41.0886 114.272 40.7526 113.992C40.4166 113.712 40.0246 113.572 39.5766 113.572C39.1286 113.572 38.7366 113.712 38.4006 113.992C38.0646 114.272 37.8006 114.672 37.6086 115.192C37.4246 115.704 37.3326 116.308 37.3326 117.004C37.3326 117.7 37.4246 118.316 37.6086 118.852C37.8006 119.38 38.0646 119.788 38.4006 120.076C38.7366 120.364 39.1286 120.508 39.5766 120.508ZM44.8999 113.08H45.5959V120.388H49.6519V121H44.8999V113.08ZM53.9672 121.144C53.3912 121.144 52.8752 120.976 52.4192 120.64C51.9712 120.296 51.6192 119.812 51.3632 119.188C51.1152 118.564 50.9912 117.836 50.9912 117.004C50.9912 116.18 51.1152 115.464 51.3632 114.856C51.6192 114.24 51.9712 113.768 52.4192 113.44C52.8752 113.104 53.3912 112.936 53.9672 112.936C54.5432 112.936 55.0552 113.104 55.5032 113.44C55.9592 113.768 56.3112 114.24 56.5592 114.856C56.8152 115.472 56.9432 116.188 56.9432 117.004C56.9432 117.836 56.8152 118.564 56.5592 119.188C56.3112 119.812 55.9592 120.296 55.5032 120.64C55.0552 120.976 54.5432 121.144 53.9672 121.144ZM53.9672 120.508C54.4152 120.508 54.8072 120.364 55.1432 120.076C55.4792 119.788 55.7392 119.38 55.9232 118.852C56.1152 118.316 56.2112 117.7 56.2112 117.004C56.2112 116.308 56.1152 115.704 55.9232 115.192C55.7392 114.672 55.4792 114.272 55.1432 113.992C54.8072 113.712 54.4152 113.572 53.9672 113.572C53.5192 113.572 53.1272 113.712 52.7912 113.992C52.4552 114.272 52.1912 114.672 51.9992 115.192C51.8152 115.704 51.7232 116.308 51.7232 117.004C51.7232 117.7 51.8152 118.316 51.9992 118.852C52.1912 119.38 52.4552 119.788 52.7912 120.076C53.1272 120.364 53.5192 120.508 53.9672 120.508ZM61.5825 121.144C60.9265 121.144 60.3465 120.976 59.8425 120.64C59.3385 120.304 58.9425 119.828 58.6545 119.212C58.3745 118.588 58.2345 117.856 58.2345 117.016C58.2345 116.192 58.3785 115.472 58.6665 114.856C58.9545 114.24 59.3585 113.768 59.8785 113.44C60.4065 113.104 61.0105 112.936 61.6905 112.936C62.5145 112.936 63.2225 113.248 63.8145 113.872L63.4065 114.34C63.1745 114.1 62.9225 113.912 62.6505 113.776C62.3865 113.64 62.0665 113.572 61.6905 113.572C61.1465 113.572 60.6705 113.712 60.2625 113.992C59.8545 114.272 59.5385 114.672 59.3145 115.192C59.0985 115.712 58.9905 116.32 58.9905 117.016C58.9905 118.088 59.2225 118.94 59.6865 119.572C60.1585 120.196 60.8065 120.508 61.6305 120.508C61.9505 120.508 62.2505 120.46 62.5305 120.364C62.8105 120.26 63.0385 120.124 63.2145 119.956V117.628H61.4865V117.028H63.8985V120.244C63.6345 120.516 63.3025 120.736 62.9025 120.904C62.5105 121.064 62.0705 121.144 61.5825 121.144ZM67.9978 118.108L65.3098 113.08H66.0538L67.3858 115.612L67.8178 116.452L68.3578 117.46H68.4058L68.7538 116.812C68.8498 116.628 68.9498 116.436 69.0538 116.236C69.1658 116.028 69.2818 115.808 69.4018 115.576L70.6738 113.08H71.4058L68.7178 118.108V121H67.9978V118.108Z" fill="black"/>
<path d="M427.728 113.08H428.424V120.388H432.48V121H427.728V113.08ZM434.431 120.388H436.435V113.68H434.431V113.08H439.159V113.68H437.155V120.388H439.159V121H434.431V120.388ZM441.459 113.08H442.191L445.923 120.04H445.935C445.935 119.816 445.931 119.62 445.923 119.452C445.915 119.276 445.907 119.124 445.899 118.996C445.867 118.42 445.851 117.98 445.851 117.676V113.08H446.523V121H445.791L442.899 115.612L442.059 114.028H442.047C442.047 114.268 442.051 114.476 442.059 114.652C442.067 114.828 442.075 114.976 442.083 115.096C442.115 115.656 442.131 116.076 442.131 116.356V121H441.459V113.08ZM451.606 121.144C450.95 121.144 450.37 120.976 449.866 120.64C449.362 120.304 448.966 119.828 448.678 119.212C448.398 118.588 448.258 117.856 448.258 117.016C448.258 116.192 448.402 115.472 448.69 114.856C448.978 114.24 449.382 113.768 449.902 113.44C450.43 113.104 451.034 112.936 451.714 112.936C452.538 112.936 453.246 113.248 453.838 113.872L453.43 114.34C453.198 114.1 452.946 113.912 452.674 113.776C452.41 113.64 452.09 113.572 451.714 113.572C451.17 113.572 450.694 113.712 450.286 113.992C449.878 114.272 449.562 114.672 449.338 115.192C449.122 115.712 449.014 116.32 449.014 117.016C449.014 118.088 449.246 118.94 449.71 119.572C450.182 120.196 450.83 120.508 451.654 120.508C451.974 120.508 452.274 120.46 452.554 120.364C452.834 120.26 453.062 120.124 453.238 119.956V117.628H451.51V117.028H453.922V120.244C453.658 120.516 453.326 120.736 452.926 120.904C452.534 121.064 452.094 121.144 451.606 121.144ZM458.393 121.144C457.617 121.144 456.989 120.9 456.509 120.412C456.037 119.924 455.801 119.132 455.801 118.036V113.08H456.521V117.988C456.521 118.884 456.689 119.528 457.025 119.92C457.369 120.312 457.825 120.508 458.393 120.508C458.953 120.508 459.405 120.312 459.749 119.92C460.093 119.528 460.265 118.884 460.265 117.988V113.08H460.961V118.036C460.961 119.132 460.725 119.924 460.253 120.412C459.781 120.9 459.161 121.144 458.393 121.144ZM463.213 120.388H465.217V113.68H463.213V113.08H467.941V113.68H465.937V120.388H467.941V121H463.213V120.388ZM472.868 121.144C472.292 121.144 471.764 121.04 471.284 120.832C470.804 120.616 470.392 120.324 470.048 119.956L470.492 119.452C470.796 119.78 471.152 120.04 471.56 120.232C471.976 120.416 472.412 120.508 472.868 120.508C473.476 120.508 473.956 120.372 474.308 120.1C474.66 119.828 474.836 119.468 474.836 119.02C474.836 118.724 474.772 118.484 474.644 118.3C474.524 118.116 474.368 117.972 474.176 117.868C473.992 117.756 473.712 117.616 473.336 117.448L472.16 116.944C471.664 116.744 471.252 116.488 470.924 116.176C470.604 115.864 470.444 115.452 470.444 114.94C470.444 114.556 470.548 114.212 470.756 113.908C470.972 113.604 471.268 113.368 471.644 113.2C472.02 113.024 472.444 112.936 472.916 112.936C473.396 112.936 473.84 113.024 474.248 113.2C474.656 113.368 475 113.596 475.28 113.884L474.884 114.352C474.324 113.832 473.668 113.572 472.916 113.572C472.388 113.572 471.964 113.692 471.644 113.932C471.332 114.164 471.176 114.484 471.176 114.892C471.176 115.156 471.244 115.38 471.38 115.564C471.524 115.74 471.684 115.88 471.86 115.984C472.044 116.088 472.3 116.212 472.628 116.356L473.792 116.86C474.168 117.036 474.476 117.208 474.716 117.376C474.964 117.536 475.164 117.748 475.316 118.012C475.476 118.268 475.556 118.584 475.556 118.96C475.556 119.368 475.444 119.74 475.22 120.076C475.004 120.404 474.692 120.664 474.284 120.856C473.876 121.048 473.404 121.144 472.868 121.144ZM479.607 113.68H476.919V113.08H483.015V113.68H480.327V121H479.607V113.68ZM484.799 120.388H486.803V113.68H484.799V113.08H489.527V113.68H487.523V120.388H489.527V121H484.799V120.388ZM494.97 121.144C494.314 121.144 493.73 120.976 493.218 120.64C492.714 120.304 492.318 119.828 492.03 119.212C491.742 118.588 491.598 117.856 491.598 117.016C491.598 116.192 491.742 115.472 492.03 114.856C492.318 114.24 492.722 113.768 493.242 113.44C493.762 113.104 494.358 112.936 495.03 112.936C495.47 112.936 495.866 113.024 496.218 113.2C496.578 113.376 496.878 113.6 497.118 113.872L496.71 114.34C496.238 113.828 495.678 113.572 495.03 113.572C494.486 113.572 494.01 113.712 493.602 113.992C493.194 114.272 492.882 114.672 492.666 115.192C492.45 115.712 492.342 116.32 492.342 117.016C492.342 117.72 492.45 118.336 492.666 118.864C492.882 119.384 493.19 119.788 493.59 120.076C493.998 120.364 494.47 120.508 495.006 120.508C495.382 120.508 495.722 120.432 496.026 120.28C496.33 120.12 496.626 119.884 496.914 119.572L497.334 120.016C497.014 120.384 496.662 120.664 496.278 120.856C495.894 121.048 495.458 121.144 494.97 121.144ZM501.649 121.144C501.073 121.144 500.545 121.04 500.065 120.832C499.585 120.616 499.173 120.324 498.829 119.956L499.273 119.452C499.577 119.78 499.933 120.04 500.341 120.232C500.757 120.416 501.193 120.508 501.649 120.508C502.257 120.508 502.737 120.372 503.089 120.1C503.441 119.828 503.617 119.468 503.617 119.02C503.617 118.724 503.553 118.484 503.425 118.3C503.305 118.116 503.149 117.972 502.957 117.868C502.773 117.756 502.493 117.616 502.117 117.448L500.941 116.944C500.445 116.744 500.033 116.488 499.705 116.176C499.385 115.864 499.225 115.452 499.225 114.94C499.225 114.556 499.329 114.212 499.537 113.908C499.753 113.604 500.049 113.368 500.425 113.2C500.801 113.024 501.225 112.936 501.697 112.936C502.177 112.936 502.621 113.024 503.029 113.2C503.437 113.368 503.781 113.596 504.061 113.884L503.665 114.352C503.105 113.832 502.449 113.572 501.697 113.572C501.169 113.572 500.745 113.692 500.425 113.932C500.113 114.164 499.957 114.484 499.957 114.892C499.957 115.156 500.025 115.38 500.161 115.564C500.305 115.74 500.465 115.88 500.641 115.984C500.825 116.088 501.081 116.212 501.409 116.356L502.573 116.86C502.949 117.036 503.257 117.208 503.497 117.376C503.745 117.536 503.945 117.748 504.097 118.012C504.257 118.268 504.337 118.584 504.337 118.96C504.337 119.368 504.225 119.74 504.001 120.076C503.785 120.404 503.473 120.664 503.065 120.856C502.657 121.048 502.185 121.144 501.649 121.144Z" fill="black"/>
<path d="M429.216 314.08H429.984L432.708 322H431.964L431.112 319.372H428.076L427.212 322H426.492L429.216 314.08ZM430.908 318.784L430.464 317.404C430.128 316.404 429.848 315.5 429.624 314.692H429.576C429.368 315.42 429.088 316.324 428.736 317.404L428.292 318.784H430.908ZM434.263 314.08H434.995L438.727 321.04H438.739C438.739 320.816 438.735 320.62 438.727 320.452C438.719 320.276 438.711 320.124 438.703 319.996C438.671 319.42 438.655 318.98 438.655 318.676V314.08H439.327V322H438.595L435.703 316.612L434.863 315.028H434.851C434.851 315.268 434.855 315.476 434.863 315.652C434.871 315.828 434.879 315.976 434.887 316.096C434.919 316.656 434.935 317.076 434.935 317.356V322H434.263V314.08ZM443.631 314.68H440.943V314.08H447.039V314.68H444.351V322H443.631V314.68ZM448.606 314.08H449.326V317.5H453.046V314.08H453.766V322H453.046V318.112H449.326V322H448.606V314.08ZM456.113 314.08H458.441C459.273 314.08 459.921 314.252 460.385 314.596C460.857 314.932 461.093 315.468 461.093 316.204C461.093 316.82 460.925 317.316 460.589 317.692C460.253 318.06 459.785 318.308 459.185 318.436L461.273 322H460.457L458.405 318.472H456.821V322H456.113V314.08ZM458.297 317.872C458.969 317.872 459.481 317.736 459.833 317.464C460.193 317.184 460.373 316.764 460.373 316.204C460.373 315.66 460.197 315.268 459.845 315.028C459.501 314.78 458.985 314.656 458.297 314.656H456.821V317.872H458.297ZM465.577 322.144C465.001 322.144 464.485 321.976 464.029 321.64C463.581 321.296 463.229 320.812 462.973 320.188C462.725 319.564 462.601 318.836 462.601 318.004C462.601 317.18 462.725 316.464 462.973 315.856C463.229 315.24 463.581 314.768 464.029 314.44C464.485 314.104 465.001 313.936 465.577 313.936C466.153 313.936 466.665 314.104 467.113 314.44C467.569 314.768 467.921 315.24 468.169 315.856C468.425 316.472 468.553 317.188 468.553 318.004C468.553 318.836 468.425 319.564 468.169 320.188C467.921 320.812 467.569 321.296 467.113 321.64C466.665 321.976 466.153 322.144 465.577 322.144ZM465.577 321.508C466.025 321.508 466.417 321.364 466.753 321.076C467.089 320.788 467.349 320.38 467.533 319.852C467.725 319.316 467.821 318.7 467.821 318.004C467.821 317.308 467.725 316.704 467.533 316.192C467.349 315.672 467.089 315.272 466.753 314.992C466.417 314.712 466.025 314.572 465.577 314.572C465.129 314.572 464.737 314.712 464.401 314.992C464.065 315.272 463.801 315.672 463.609 316.192C463.425 316.704 463.333 317.308 463.333 318.004C463.333 318.7 463.425 319.316 463.609 319.852C463.801 320.38 464.065 320.788 464.401 321.076C464.737 321.364 465.129 321.508 465.577 321.508ZM470.528 314.08H472.772C473.7 314.08 474.404 314.256 474.884 314.608C475.372 314.952 475.616 315.524 475.616 316.324C475.616 317.108 475.364 317.7 474.86 318.1C474.364 318.492 473.668 318.688 472.772 318.688H471.236V322H470.528V314.08ZM472.628 318.088C473.404 318.088 473.976 317.948 474.344 317.668C474.712 317.388 474.896 316.94 474.896 316.324C474.896 315.708 474.716 315.276 474.356 315.028C473.996 314.78 473.42 314.656 472.628 314.656H471.236V318.088H472.628ZM479.967 322.144C479.391 322.144 478.875 321.976 478.419 321.64C477.971 321.296 477.619 320.812 477.363 320.188C477.115 319.564 476.991 318.836 476.991 318.004C476.991 317.18 477.115 316.464 477.363 315.856C477.619 315.24 477.971 314.768 478.419 314.44C478.875 314.104 479.391 313.936 479.967 313.936C480.543 313.936 481.055 314.104 481.503 314.44C481.959 314.768 482.311 315.24 482.559 315.856C482.815 316.472 482.943 317.188 482.943 318.004C482.943 318.836 482.815 319.564 482.559 320.188C482.311 320.812 481.959 321.296 481.503 321.64C481.055 321.976 480.543 322.144 479.967 322.144ZM479.967 321.508C480.415 321.508 480.807 321.364 481.143 321.076C481.479 320.788 481.739 320.38 481.923 319.852C482.115 319.316 482.211 318.7 482.211 318.004C482.211 317.308 482.115 316.704 481.923 316.192C481.739 315.672 481.479 315.272 481.143 314.992C480.807 314.712 480.415 314.572 479.967 314.572C479.519 314.572 479.127 314.712 478.791 314.992C478.455 315.272 478.191 315.672 477.999 316.192C477.815 316.704 477.723 317.308 477.723 318.004C477.723 318.7 477.815 319.316 477.999 319.852C478.191 320.38 478.455 320.788 478.791 321.076C479.127 321.364 479.519 321.508 479.967 321.508ZM485.291 314.08H485.987V321.388H490.043V322H485.291V314.08ZM494.358 322.144C493.782 322.144 493.266 321.976 492.81 321.64C492.362 321.296 492.01 320.812 491.754 320.188C491.506 319.564 491.382 318.836 491.382 318.004C491.382 317.18 491.506 316.464 491.754 315.856C492.01 315.24 492.362 314.768 492.81 314.44C493.266 314.104 493.782 313.936 494.358 313.936C494.934 313.936 495.446 314.104 495.894 314.44C496.35 314.768 496.702 315.24 496.95 315.856C497.206 316.472 497.334 317.188 497.334 318.004C497.334 318.836 497.206 319.564 496.95 320.188C496.702 320.812 496.35 321.296 495.894 321.64C495.446 321.976 494.934 322.144 494.358 322.144ZM494.358 321.508C494.806 321.508 495.198 321.364 495.534 321.076C495.87 320.788 496.13 320.38 496.314 319.852C496.506 319.316 496.602 318.7 496.602 318.004C496.602 317.308 496.506 316.704 496.314 316.192C496.13 315.672 495.87 315.272 495.534 314.992C495.198 314.712 494.806 314.572 494.358 314.572C493.91 314.572 493.518 314.712 493.182 314.992C492.846 315.272 492.582 315.672 492.39 316.192C492.206 316.704 492.114 317.308 492.114 318.004C492.114 318.7 492.206 319.316 492.39 319.852C492.582 320.38 492.846 320.788 493.182 321.076C493.518 321.364 493.91 321.508 494.358 321.508ZM501.973 322.144C501.317 322.144 500.737 321.976 500.233 321.64C499.729 321.304 499.333 320.828 499.045 320.212C498.765 319.588 498.625 318.856 498.625 318.016C498.625 317.192 498.769 316.472 499.057 315.856C499.345 315.24 499.749 314.768 500.269 314.44C500.797 314.104 501.401 313.936 502.081 313.936C502.905 313.936 503.613 314.248 504.205 314.872L503.797 315.34C503.565 315.1 503.313 314.912 503.041 314.776C502.777 314.64 502.457 314.572 502.081 314.572C501.537 314.572 501.061 314.712 500.653 314.992C500.245 315.272 499.929 315.672 499.705 316.192C499.489 316.712 499.381 317.32 499.381 318.016C499.381 319.088 499.613 319.94 500.077 320.572C500.549 321.196 501.197 321.508 502.021 321.508C502.341 321.508 502.641 321.46 502.921 321.364C503.201 321.26 503.429 321.124 503.605 320.956V318.628H501.877V318.028H504.289V321.244C504.025 321.516 503.693 321.736 503.293 321.904C502.901 322.064 502.461 322.144 501.973 322.144ZM508.388 319.108L505.7 314.08H506.444L507.776 316.612L508.208 317.452L508.748 318.46H508.796L509.144 317.812C509.24 317.628 509.34 317.436 509.444 317.236C509.556 317.028 509.672 316.808 509.792 316.576L511.064 314.08H511.796L509.108 319.108V322H508.388V319.108Z" fill="black"/>
<path d="M18.1222 322.144C17.4662 322.144 16.8822 321.976 16.3702 321.64C15.8662 321.304 15.4702 320.828 15.1822 320.212C14.8942 319.588 14.7502 318.856 14.7502 318.016C14.7502 317.192 14.8942 316.472 15.1822 315.856C15.4702 315.24 15.8742 314.768 16.3942 314.44C16.9142 314.104 17.5102 313.936 18.1822 313.936C18.6222 313.936 19.0182 314.024 19.3702 314.2C19.7302 314.376 20.0302 314.6 20.2702 314.872L19.8622 315.34C19.3902 314.828 18.8302 314.572 18.1822 314.572C17.6382 314.572 17.1622 314.712 16.7542 314.992C16.3462 315.272 16.0342 315.672 15.8182 316.192C15.6022 316.712 15.4942 317.32 15.4942 318.016C15.4942 318.72 15.6022 319.336 15.8182 319.864C16.0342 320.384 16.3422 320.788 16.7422 321.076C17.1502 321.364 17.6222 321.508 18.1582 321.508C18.5342 321.508 18.8742 321.432 19.1782 321.28C19.4822 321.12 19.7782 320.884 20.0662 320.572L20.4862 321.016C20.1662 321.384 19.8142 321.664 19.4302 321.856C19.0462 322.048 18.6102 322.144 18.1222 322.144ZM24.7055 322.144C24.1295 322.144 23.6135 321.976 23.1575 321.64C22.7095 321.296 22.3575 320.812 22.1015 320.188C21.8535 319.564 21.7295 318.836 21.7295 318.004C21.7295 317.18 21.8535 316.464 22.1015 315.856C22.3575 315.24 22.7095 314.768 23.1575 314.44C23.6135 314.104 24.1295 313.936 24.7055 313.936C25.2815 313.936 25.7935 314.104 26.2415 314.44C26.6975 314.768 27.0495 315.24 27.2975 315.856C27.5535 316.472 27.6815 317.188 27.6815 318.004C27.6815 318.836 27.5535 319.564 27.2975 320.188C27.0495 320.812 26.6975 321.296 26.2415 321.64C25.7935 321.976 25.2815 322.144 24.7055 322.144ZM24.7055 321.508C25.1535 321.508 25.5455 321.364 25.8815 321.076C26.2175 320.788 26.4775 320.38 26.6615 319.852C26.8535 319.316 26.9495 318.7 26.9495 318.004C26.9495 317.308 26.8535 316.704 26.6615 316.192C26.4775 315.672 26.2175 315.272 25.8815 314.992C25.5455 314.712 25.1535 314.572 24.7055 314.572C24.2575 314.572 23.8655 314.712 23.5295 314.992C23.1935 315.272 22.9295 315.672 22.7375 316.192C22.5535 316.704 22.4615 317.308 22.4615 318.004C22.4615 318.7 22.5535 319.316 22.7375 319.852C22.9295 320.38 23.1935 320.788 23.5295 321.076C23.8655 321.364 24.2575 321.508 24.7055 321.508ZM29.2608 314.08H30.2088L31.6368 317.656L32.1528 319.012H32.2008L32.6808 317.656L34.1088 314.08H35.0688V322H34.3488V316.84C34.3488 316.616 34.3688 316.076 34.4088 315.22L34.4208 314.836H34.3728L33.8568 316.348L32.4048 319.84H31.9368L30.4728 316.348L29.9088 314.836H29.8728C29.9368 315.82 29.9688 316.488 29.9688 316.84V322H29.2608V314.08ZM37.3794 314.08H39.6234C40.5514 314.08 41.2554 314.256 41.7354 314.608C42.2234 314.952 42.4674 315.524 42.4674 316.324C42.4674 317.108 42.2154 317.7 41.7114 318.1C41.2154 318.492 40.5194 318.688 39.6234 318.688H38.0874V322H37.3794V314.08ZM39.4794 318.088C40.2554 318.088 40.8274 317.948 41.1954 317.668C41.5634 317.388 41.7474 316.94 41.7474 316.324C41.7474 315.708 41.5674 315.276 41.2074 315.028C40.8474 314.78 40.2714 314.656 39.4794 314.656H38.0874V318.088H39.4794ZM46.8308 322.144C46.0548 322.144 45.4268 321.9 44.9468 321.412C44.4748 320.924 44.2388 320.132 44.2388 319.036V314.08H44.9588V318.988C44.9588 319.884 45.1268 320.528 45.4628 320.92C45.8068 321.312 46.2628 321.508 46.8308 321.508C47.3908 321.508 47.8428 321.312 48.1868 320.92C48.5308 320.528 48.7028 319.884 48.7028 318.988V314.08H49.3988V319.036C49.3988 320.132 49.1628 320.924 48.6908 321.412C48.2188 321.9 47.5988 322.144 46.8308 322.144ZM53.6541 314.68H50.9661V314.08H57.0621V314.68H54.3741V322H53.6541V314.68ZM59.0854 314.08H63.8374V314.68H59.8054V317.5H63.2014V318.124H59.8054V321.388H63.9574V322H59.0854V314.08ZM66.1367 314.08H68.4647C69.2967 314.08 69.9447 314.252 70.4087 314.596C70.8807 314.932 71.1167 315.468 71.1167 316.204C71.1167 316.82 70.9487 317.316 70.6127 317.692C70.2767 318.06 69.8087 318.308 69.2087 318.436L71.2967 322H70.4807L68.4287 318.472H66.8447V322H66.1367V314.08ZM68.3207 317.872C68.9927 317.872 69.5047 317.736 69.8567 317.464C70.2167 317.184 70.3967 316.764 70.3967 316.204C70.3967 315.66 70.2207 315.268 69.8687 315.028C69.5247 314.78 69.0087 314.656 68.3207 314.656H66.8447V317.872H68.3207ZM25.3288 337.144C24.7528 337.144 24.2248 337.04 23.7448 336.832C23.2648 336.616 22.8528 336.324 22.5088 335.956L22.9528 335.452C23.2568 335.78 23.6128 336.04 24.0208 336.232C24.4368 336.416 24.8728 336.508 25.3288 336.508C25.9368 336.508 26.4168 336.372 26.7688 336.1C27.1208 335.828 27.2968 335.468 27.2968 335.02C27.2968 334.724 27.2328 334.484 27.1048 334.3C26.9848 334.116 26.8288 333.972 26.6368 333.868C26.4528 333.756 26.1728 333.616 25.7968 333.448L24.6208 332.944C24.1248 332.744 23.7128 332.488 23.3848 332.176C23.0648 331.864 22.9048 331.452 22.9048 330.94C22.9048 330.556 23.0088 330.212 23.2168 329.908C23.4328 329.604 23.7288 329.368 24.1048 329.2C24.4808 329.024 24.9048 328.936 25.3768 328.936C25.8568 328.936 26.3008 329.024 26.7088 329.2C27.1168 329.368 27.4608 329.596 27.7408 329.884L27.3448 330.352C26.7848 329.832 26.1288 329.572 25.3768 329.572C24.8488 329.572 24.4248 329.692 24.1048 329.932C23.7928 330.164 23.6368 330.484 23.6368 330.892C23.6368 331.156 23.7048 331.38 23.8408 331.564C23.9848 331.74 24.1448 331.88 24.3208 331.984C24.5048 332.088 24.7608 332.212 25.0888 332.356L26.2528 332.86C26.6288 333.036 26.9368 333.208 27.1768 333.376C27.4248 333.536 27.6248 333.748 27.7768 334.012C27.9368 334.268 28.0168 334.584 28.0168 334.96C28.0168 335.368 27.9048 335.74 27.6808 336.076C27.4648 336.404 27.1528 336.664 26.7448 336.856C26.3368 337.048 25.8648 337.144 25.3288 337.144ZM33.0401 337.144C32.3841 337.144 31.8001 336.976 31.2881 336.64C30.7841 336.304 30.3881 335.828 30.1001 335.212C29.8121 334.588 29.6681 333.856 29.6681 333.016C29.6681 332.192 29.8121 331.472 30.1001 330.856C30.3881 330.24 30.7921 329.768 31.3121 329.44C31.8321 329.104 32.4281 328.936 33.1001 328.936C33.5401 328.936 33.9361 329.024 34.2881 329.2C34.6481 329.376 34.9481 329.6 35.1881 329.872L34.7801 330.34C34.3081 329.828 33.7481 329.572 33.1001 329.572C32.5561 329.572 32.0801 329.712 31.6721 329.992C31.2641 330.272 30.9521 330.672 30.7361 331.192C30.5201 331.712 30.4121 332.32 30.4121 333.016C30.4121 333.72 30.5201 334.336 30.7361 334.864C30.9521 335.384 31.2601 335.788 31.6601 336.076C32.0681 336.364 32.5401 336.508 33.0761 336.508C33.4521 336.508 33.7921 336.432 34.0961 336.28C34.4001 336.12 34.6961 335.884 34.9841 335.572L35.4041 336.016C35.0841 336.384 34.7321 336.664 34.3481 336.856C33.9641 337.048 33.5281 337.144 33.0401 337.144ZM37.2594 336.388H39.2634V329.68H37.2594V329.08H41.9874V329.68H39.9834V336.388H41.9874V337H37.2594V336.388ZM44.6948 329.08H49.4468V329.68H45.4148V332.5H48.8108V333.124H45.4148V336.388H49.5668V337H44.6948V329.08ZM51.4821 329.08H52.2141L55.9461 336.04H55.9581C55.9581 335.816 55.9541 335.62 55.9461 335.452C55.9381 335.276 55.9301 335.124 55.9221 334.996C55.8901 334.42 55.8741 333.98 55.8741 333.676V329.08H56.5461V337H55.8141L52.9221 331.612L52.0821 330.028H52.0701C52.0701 330.268 52.0741 330.476 52.0821 330.652C52.0901 330.828 52.0981 330.976 52.1061 331.096C52.1381 331.656 52.1541 332.076 52.1541 332.356V337H51.4821V329.08ZM61.8214 337.144C61.1654 337.144 60.5814 336.976 60.0694 336.64C59.5654 336.304 59.1694 335.828 58.8814 335.212C58.5934 334.588 58.4494 333.856 58.4494 333.016C58.4494 332.192 58.5934 331.472 58.8814 330.856C59.1694 330.24 59.5734 329.768 60.0934 329.44C60.6134 329.104 61.2094 328.936 61.8814 328.936C62.3214 328.936 62.7174 329.024 63.0694 329.2C63.4294 329.376 63.7294 329.6 63.9694 329.872L63.5614 330.34C63.0894 329.828 62.5294 329.572 61.8814 329.572C61.3374 329.572 60.8614 329.712 60.4534 329.992C60.0454 330.272 59.7334 330.672 59.5174 331.192C59.3014 331.712 59.1934 332.32 59.1934 333.016C59.1934 333.72 59.3014 334.336 59.5174 334.864C59.7334 335.384 60.0414 335.788 60.4414 336.076C60.8494 336.364 61.3214 336.508 61.8574 336.508C62.2334 336.508 62.5734 336.432 62.8774 336.28C63.1814 336.12 63.4774 335.884 63.7654 335.572L64.1854 336.016C63.8654 336.384 63.5134 336.664 63.1294 336.856C62.7454 337.048 62.3094 337.144 61.8214 337.144ZM66.2807 329.08H71.0327V329.68H67.0007V332.5H70.3967V333.124H67.0007V336.388H71.1527V337H66.2807V329.08Z" fill="black"/>
<path d="M207.724 425.08H208.456L212.188 432.04H212.2C212.2 431.816 212.196 431.62 212.188 431.452C212.18 431.276 212.172 431.124 212.164 430.996C212.132 430.42 212.116 429.98 212.116 429.676V425.08H212.788V433H212.056L209.164 427.612L208.324 426.028H208.312C208.312 426.268 208.316 426.476 208.324 426.652C208.332 426.828 208.34 426.976 208.348 427.096C208.38 427.656 208.396 428.076 208.396 428.356V433H207.724V425.08ZM215.328 425.08H220.08V425.68H216.048V428.5H219.444V429.124H216.048V432.388H220.2V433H215.328V425.08ZM224.659 433.144C223.883 433.144 223.255 432.9 222.775 432.412C222.303 431.924 222.067 431.132 222.067 430.036V425.08H222.787V429.988C222.787 430.884 222.955 431.528 223.291 431.92C223.635 432.312 224.091 432.508 224.659 432.508C225.219 432.508 225.671 432.312 226.015 431.92C226.359 431.528 226.531 430.884 226.531 429.988V425.08H227.227V430.036C227.227 431.132 226.991 431.924 226.519 432.412C226.047 432.9 225.427 433.144 224.659 433.144ZM229.574 425.08H231.902C232.734 425.08 233.382 425.252 233.846 425.596C234.318 425.932 234.554 426.468 234.554 427.204C234.554 427.82 234.386 428.316 234.05 428.692C233.714 429.06 233.246 429.308 232.646 429.436L234.734 433H233.918L231.866 429.472H230.282V433H229.574V425.08ZM231.758 428.872C232.43 428.872 232.942 428.736 233.294 428.464C233.654 428.184 233.834 427.764 233.834 427.204C233.834 426.66 233.658 426.268 233.306 426.028C232.962 425.78 232.446 425.656 231.758 425.656H230.282V428.872H231.758ZM239.038 433.144C238.462 433.144 237.946 432.976 237.49 432.64C237.042 432.296 236.69 431.812 236.434 431.188C236.186 430.564 236.062 429.836 236.062 429.004C236.062 428.18 236.186 427.464 236.434 426.856C236.69 426.24 237.042 425.768 237.49 425.44C237.946 425.104 238.462 424.936 239.038 424.936C239.614 424.936 240.126 425.104 240.574 425.44C241.03 425.768 241.382 426.24 241.63 426.856C241.886 427.472 242.014 428.188 242.014 429.004C242.014 429.836 241.886 430.564 241.63 431.188C241.382 431.812 241.03 432.296 240.574 432.64C240.126 432.976 239.614 433.144 239.038 433.144ZM239.038 432.508C239.486 432.508 239.878 432.364 240.214 432.076C240.55 431.788 240.81 431.38 240.994 430.852C241.186 430.316 241.282 429.7 241.282 429.004C241.282 428.308 241.186 427.704 240.994 427.192C240.81 426.672 240.55 426.272 240.214 425.992C239.878 425.712 239.486 425.572 239.038 425.572C238.59 425.572 238.198 425.712 237.862 425.992C237.526 426.272 237.262 426.672 237.07 427.192C236.886 427.704 236.794 428.308 236.794 429.004C236.794 429.7 236.886 430.316 237.07 430.852C237.262 431.38 237.526 431.788 237.862 432.076C238.198 432.364 238.59 432.508 239.038 432.508ZM246.329 433.144C245.753 433.144 245.225 433.04 244.745 432.832C244.265 432.616 243.853 432.324 243.509 431.956L243.953 431.452C244.257 431.78 244.613 432.04 245.021 432.232C245.437 432.416 245.873 432.508 246.329 432.508C246.937 432.508 247.417 432.372 247.769 432.1C248.121 431.828 248.297 431.468 248.297 431.02C248.297 430.724 248.233 430.484 248.105 430.3C247.985 430.116 247.829 429.972 247.637 429.868C247.453 429.756 247.173 429.616 246.797 429.448L245.621 428.944C245.125 428.744 244.713 428.488 244.385 428.176C244.065 427.864 243.905 427.452 243.905 426.94C243.905 426.556 244.009 426.212 244.217 425.908C244.433 425.604 244.729 425.368 245.105 425.2C245.481 425.024 245.905 424.936 246.377 424.936C246.857 424.936 247.301 425.024 247.709 425.2C248.117 425.368 248.461 425.596 248.741 425.884L248.345 426.352C247.785 425.832 247.129 425.572 246.377 425.572C245.849 425.572 245.425 425.692 245.105 425.932C244.793 426.164 244.637 426.484 244.637 426.892C244.637 427.156 244.705 427.38 244.841 427.564C244.985 427.74 245.145 427.88 245.321 427.984C245.505 428.088 245.761 428.212 246.089 428.356L247.253 428.86C247.629 429.036 247.937 429.208 248.177 429.376C248.425 429.536 248.625 429.748 248.777 430.012C248.937 430.268 249.017 430.584 249.017 430.96C249.017 431.368 248.905 431.74 248.681 432.076C248.465 432.404 248.153 432.664 247.745 432.856C247.337 433.048 246.865 433.144 246.329 433.144ZM254.04 433.144C253.384 433.144 252.8 432.976 252.288 432.64C251.784 432.304 251.388 431.828 251.1 431.212C250.812 430.588 250.668 429.856 250.668 429.016C250.668 428.192 250.812 427.472 251.1 426.856C251.388 426.24 251.792 425.768 252.312 425.44C252.832 425.104 253.428 424.936 254.1 424.936C254.54 424.936 254.936 425.024 255.288 425.2C255.648 425.376 255.948 425.6 256.188 425.872L255.78 426.34C255.308 425.828 254.748 425.572 254.1 425.572C253.556 425.572 253.08 425.712 252.672 425.992C252.264 426.272 251.952 426.672 251.736 427.192C251.52 427.712 251.412 428.32 251.412 429.016C251.412 429.72 251.52 430.336 251.736 430.864C251.952 431.384 252.26 431.788 252.66 432.076C253.068 432.364 253.54 432.508 254.076 432.508C254.452 432.508 254.792 432.432 255.096 432.28C255.4 432.12 255.696 431.884 255.984 431.572L256.404 432.016C256.084 432.384 255.732 432.664 255.348 432.856C254.964 433.048 254.528 433.144 254.04 433.144ZM258.259 432.388H260.263V425.68H258.259V425.08H262.987V425.68H260.983V432.388H262.987V433H258.259V432.388ZM265.695 425.08H270.447V425.68H266.415V428.5H269.811V429.124H266.415V432.388H270.567V433H265.695V425.08ZM272.482 425.08H273.214L276.946 432.04H276.958C276.958 431.816 276.954 431.62 276.946 431.452C276.938 431.276 276.93 431.124 276.922 430.996C276.89 430.42 276.874 429.98 276.874 429.676V425.08H277.546V433H276.814L273.922 427.612L273.082 426.028H273.07C273.07 426.268 273.074 426.476 273.082 426.652C273.09 426.828 273.098 426.976 273.106 427.096C273.138 427.656 273.154 428.076 273.154 428.356V433H272.482V425.08ZM282.821 433.144C282.165 433.144 281.581 432.976 281.069 432.64C280.565 432.304 280.169 431.828 279.881 431.212C279.593 430.588 279.449 429.856 279.449 429.016C279.449 428.192 279.593 427.472 279.881 426.856C280.169 426.24 280.573 425.768 281.093 425.44C281.613 425.104 282.209 424.936 282.881 424.936C283.321 424.936 283.717 425.024 284.069 425.2C284.429 425.376 284.729 425.6 284.969 425.872L284.561 426.34C284.089 425.828 283.529 425.572 282.881 425.572C282.337 425.572 281.861 425.712 281.453 425.992C281.045 426.272 280.733 426.672 280.517 427.192C280.301 427.712 280.193 428.32 280.193 429.016C280.193 429.72 280.301 430.336 280.517 430.864C280.733 431.384 281.041 431.788 281.441 432.076C281.849 432.364 282.321 432.508 282.857 432.508C283.233 432.508 283.573 432.432 283.877 432.28C284.181 432.12 284.477 431.884 284.765 431.572L285.185 432.016C284.865 432.384 284.513 432.664 284.129 432.856C283.745 433.048 283.309 433.144 282.821 433.144ZM287.281 425.08H292.033V425.68H288.001V428.5H291.397V429.124H288.001V432.388H292.153V433H287.281V425.08Z" fill="black"/>
</svg>
